<svg xmlns="http://www.w3.org/2000/svg" viewBox="0 0 541.07 319.78" preserveAspectRatio="none"><defs><style>.a{isolation:isolate;}.b{mix-blend-mode:exclusion;}.c{fill:#cbcbcb;}</style></defs><title>Asset 4</title><g class="a"><g class="b"><rect class="c" x="48" width="6.22" height="9.78"/><rect class="c" x="67.56" width="6.22" height="9.78"/><rect class="c" x="150.35" width="6.22" height="9.78"/><rect class="c" x="162.67" width="6.22" height="9.78"/><rect class="c" x="169.91" width="6.22" height="9.78"/><rect class="c" x="208.77" width="6.22" height="9.78"/><rect class="c" x="533.59" width="6.22" height="9.78"/><rect class="c" width="6.22" height="9.78"/><rect class="c" x="7.11" width="6.22" height="9.78"/><rect class="c" x="14.22" width="6.22" height="9.78"/><rect class="c" x="21.46" width="6.22" height="9.78"/><polygon class="c" points="35.69 0 34.8 0 33.78 0 28.57 0 28.57 9.78 33.78 9.78 34.8 9.78 35.69 9.78 40 9.78 41.91 9.78 41.91 0 40 0 35.69 0"/><polygon class="c" points="61.33 0 55.24 0 55.24 9.78 61.33 9.78 61.46 9.78 67.56 9.78 67.56 0 61.46 0 61.33 0"/><polygon class="c" points="79.88 0 78.73 0 78.73 9.78 79.88 9.78 84.95 9.78 86.1 9.78 86.1 0 84.95 0 79.88 0"/><polygon class="c" points="94.1 0 93.21 0 91.05 0 86.99 0 86.99 9.78 91.05 9.78 93.21 9.78 94.1 9.78 97.27 9.78 100.32 9.78 100.32 0 97.27 0 94.1 0"/><polygon class="c" points="106.42 0 103.36 0 103.36 9.78 106.42 9.78 109.59 9.78 112.64 9.78 112.64 0 109.59 0 106.42 0"/><rect class="c" x="115.68" width="6.22" height="9.78"/><polygon class="c" points="130.92 0 130.03 0 128 0 123.81 0 123.81 9.78 128 9.78 130.03 9.78 130.92 9.78 134.22 9.78 137.15 9.78 137.15 0 134.22 0 130.92 0"/><polygon class="c" points="140.31 0 138.04 0 138.04 9.78 140.31 9.78 144.26 9.78 146.54 9.78 146.54 0 144.26 0 140.31 0"/><polygon class="c" points="185.14 0 184.25 0 182.22 0 178.03 0 178.03 9.78 182.22 9.78 184.25 9.78 185.14 9.78 188.45 9.78 191.36 9.78 191.36 0 188.45 0 185.14 0"/><polygon class="c" points="201.66 0 200.77 0 199.49 0 198.47 0 194.54 0 192.25 0 192.25 9.78 194.54 9.78 198.47 9.78 199.49 9.78 200.77 9.78 201.66 9.78 205.71 9.78 207.88 9.78 207.88 0 205.71 0 201.66 0"/><polygon class="c" points="221.08 0 216.89 0 216.89 9.78 221.08 9.78 223.11 9.78 227.31 9.78 227.31 0 223.11 0 221.08 0"/><polygon class="c" points="233.4 0 229.2 0 229.2 9.78 233.4 9.78 235.43 9.78 239.62 9.78 239.62 0 235.43 0 233.4 0"/><polygon class="c" points="241.52 0 240.64 0 240.64 9.78 241.52 9.78 246.86 9.78 247.74 9.78 247.74 0 246.86 0 241.52 0"/><polygon class="c" points="252.96 0 248.76 0 248.76 9.78 252.96 9.78 254.98 9.78 259.18 9.78 259.18 0 254.98 0 252.96 0"/><polygon class="c" points="261.07 0 260.19 0 260.19 9.78 261.07 9.78 266.42 9.78 267.3 9.78 267.3 0 266.42 0 261.07 0"/><polygon class="c" points="273.39 0 272.51 0 272.51 9.78 273.39 9.78 278.73 9.78 279.62 9.78 279.62 0 278.73 0 273.39 0"/><polygon class="c" points="285.71 0 284.83 0 284.83 9.78 285.71 9.78 291.05 9.78 291.93 9.78 291.93 0 291.05 0 285.71 0"/><polygon class="c" points="299.05 0 298.16 0 298.03 0 291.94 0 291.94 9.78 298.03 9.78 298.16 9.78 299.05 9.78 304.25 9.78 305.27 9.78 305.27 0 304.25 0 299.05 0"/><polygon class="c" points="310.34 0 306.29 0 306.29 9.78 310.34 9.78 312.51 9.78 316.57 9.78 316.57 0 312.51 0 310.34 0"/><polygon class="c" points="322.66 0 318.61 0 318.61 9.78 322.66 9.78 324.83 9.78 328.88 9.78 328.88 0 324.83 0 322.66 0"/><rect class="c" x="334.98" width="6.22" height="9.78"/><polygon class="c" points="347.3 0 346.16 0 346.16 9.78 347.3 9.78 352.38 9.78 353.52 9.78 353.52 0 352.38 0 347.3 0"/><polygon class="c" points="366.85 0 365.83 0 363.56 0 359.61 0 359.61 9.78 363.56 9.78 365.83 9.78 366.85 9.78 369.78 9.78 373.07 9.78 373.07 0 369.78 0 366.85 0"/><polygon class="c" points="381.2 0 380.31 0 375.87 0 374.09 0 374.09 9.78 375.87 9.78 380.31 9.78 381.2 9.78 382.1 9.78 387.42 9.78 387.42 0 382.1 0 381.2 0"/><polygon class="c" points="388.31 0 388.19 0 388.19 9.78 388.31 9.78 394.41 9.78 394.53 9.78 394.53 0 394.41 0 388.31 0"/><polygon class="c" points="402.66 0 401.77 0 400.51 0 395.55 0 395.55 9.78 400.51 9.78 401.77 9.78 402.66 9.78 406.73 9.78 408.88 9.78 408.88 0 406.73 0 402.66 0"/><polygon class="c" points="412.82 0 409.77 0 409.77 9.78 412.82 9.78 416 9.78 419.05 9.78 419.05 0 416 0 412.82 0"/><polygon class="c" points="429.33 0 428.31 0 425.14 0 422.09 0 422.09 9.78 425.14 9.78 428.31 9.78 429.33 9.78 431.37 9.78 435.55 9.78 435.55 0 431.37 0 429.33 0"/><rect class="c" x="441.65" width="6.22" height="9.78"/><rect class="c" x="453.96" width="6.22" height="9.78"/><polygon class="c" points="469.97 0 469.08 0 468.19 0 467.3 0 462.86 0 461.07 0 461.07 9.78 462.86 9.78 467.3 9.78 468.19 9.78 469.08 9.78 469.97 9.78 474.41 9.78 476.19 9.78 476.19 0 474.41 0 469.97 0"/><polygon class="c" points="484.32 0 483.3 0 480.5 0 477.08 0 477.08 9.78 480.5 9.78 483.3 9.78 484.32 9.78 486.73 9.78 490.54 9.78 490.54 0 486.73 0 484.32 0"/><polygon class="c" points="505.01 0 504.12 0 501.71 0 497.9 0 497.9 9.78 501.71 9.78 504.12 9.78 505.01 9.78 507.94 9.78 511.24 9.78 511.24 0 507.94 0 505.01 0"/><polygon class="c" points="514.03 0 512.12 0 512.12 9.78 514.03 9.78 518.35 9.78 520.25 9.78 520.25 0 518.35 0 514.03 0"/><polygon class="c" points="526.35 0 524.44 0 524.44 9.78 526.35 9.78 530.66 9.78 532.57 9.78 532.57 0 530.66 0 526.35 0"/><path class="c" d="M6.22,19.78H0V10H6.22Z"/><path class="c" d="M18.54,19.78H12.32V10h6.22Z"/><path class="c" d="M30.86,19.78H24.63V10h6.23Z"/><path class="c" d="M43.17,19.78H37V10h6.22Z"/><path class="c" d="M55.49,19.78H49.27V10h6.22Z"/><path class="c" d="M62.73,19.78H56.51V10h6.22Z"/><path class="c" d="M63.74,19.78V10H70v9.78ZM70.86,10h6.22v9.78H70.86Zm13.33,0v9.78H78V10Z"/><path class="c" d="M85.21,19.78V10h6.22v9.78ZM92.32,10h6.22v9.78H92.32Zm13.33,0v9.78H99.43V10Z"/><path class="c" d="M118,19.78h-6.22V10H118Z"/><path class="c" d="M125.21,19.78H119V10h6.23Z"/><path class="c" d="M137.53,19.78H131.3V10h6.23Z"/><path class="c" d="M143.62,19.78V10h6.22v9.78ZM150.73,10H157v9.78h-6.22Zm13.34,0v9.78h-6.23V10Z"/><path class="c" d="M176.38,19.78h-6.22V10h6.22Z"/><path class="c" d="M187.56,19.78V10h6.22v9.78ZM194.67,10h6.22v9.78h-6.22ZM208,10v9.78h-6.22V10Z"/><path class="c" d="M220.32,19.78H214.1V10h6.22Z"/><path class="c" d="M232.64,19.78h-6.23V10h6.23Z"/><path class="c" d="M239.88,19.78h-6.23V10h6.23Z"/><path class="c" d="M252.19,19.78H246V10h6.22Z"/><path class="c" d="M258.29,19.78V10h6.22v9.78ZM265.4,10h6.22v9.78H265.4Zm13.33,0v9.78h-6.22V10Z"/><path class="c" d="M291.05,19.78h-6.22V10h6.22Z"/><path class="c" d="M303.37,19.78h-6.23V10h6.23Z"/><path class="c" d="M310.61,19.78h-6.23V10h6.23Z"/><path class="c" d="M322.92,19.78H316.7V10h6.22Z"/><path class="c" d="M330.16,19.78h-6.22V10h6.22Z"/><path class="c" d="M342.48,19.78h-6.23V10h6.23Z"/><path class="c" d="M348.57,19.78V10h6.22v9.78ZM355.68,10h6.23v9.78h-6.23ZM369,10v9.78H362.8V10Z"/><path class="c" d="M376.26,19.78H370V10h6.23Z"/><path class="c" d="M388.57,19.78h-6.22V10h6.22Z"/><path class="c" d="M416.13,19.78h-6.22V10h6.22Z"/><path class="c" d="M433.52,19.78H427.3V10h6.22Z"/><path class="c" d="M445.84,19.78h-6.22V10h6.22Z"/><path class="c" d="M458.16,19.78h-6.22V10h6.22Z"/><path class="c" d="M470.48,19.78h-6.23V10h6.23Z"/><path class="c" d="M482.79,19.78h-6.22V10h6.22Z"/><path class="c" d="M495.11,19.78h-6.22V10h6.22Z"/><path class="c" d="M526.6,19.78V10h6.22v9.78ZM533.71,10h6.22v9.78h-6.22Z"/><path class="c" d="M0,29.78V20H6.22v9.78ZM7.11,20h6.23v9.78H7.11Zm13.34,0v9.78H14.22V20Z"/><path class="c" d="M32.76,29.78H26.54V20h6.22Z"/><path class="c" d="M45.08,29.78H38.86V20h6.22Z"/><path class="c" d="M52.32,29.78H46.1V20h6.22Z"/><path class="c" d="M64.64,29.78H58.41V20h6.23Z"/><path class="c" d="M71.87,29.78H65.65V20h6.22Z"/><path class="c" d="M84.19,29.78H78V20h6.22Z"/><path class="c" d="M90.29,29.78V20h6.22v9.78ZM97.4,20h6.22v9.78H97.4Zm13.33,0v9.78h-6.22V20Z"/><path class="c" d="M118,29.78h-6.22V20H118Z"/><path class="c" d="M130.29,29.78h-6.23V20h6.23Z"/><path class="c" d="M157.84,29.78h-6.22V20h6.22Z"/><path class="c" d="M175.24,29.78H169V20h6.23Z"/><path class="c" d="M187.55,29.78h-6.22V20h6.22Z"/><path class="c" d="M199.87,29.78h-6.22V20h6.22Z"/><path class="c" d="M212.19,29.78H206V20h6.22Z"/><path class="c" d="M224.51,29.78h-6.23V20h6.23Z"/><path class="c" d="M236.82,29.78H230.6V20h6.22Z"/><path class="c" d="M268.31,29.78V20h6.23v9.78ZM275.42,20h6.23v9.78h-6.23Zm13.34,0v9.78h-6.22V20Z"/><path class="c" d="M296,29.78h-6.23V20H296Z"/><path class="c" d="M313.39,29.78h-6.22V20h6.22Z"/><path class="c" d="M325.71,29.78h-6.22V20h6.22Z"/><path class="c" d="M338,29.78H331.8V20H338Z"/><path class="c" d="M345.27,29.78H339V20h6.23Z"/><path class="c" d="M357.58,29.78h-6.22V20h6.22Z"/><path class="c" d="M369.9,29.78h-6.22V20h6.22Z"/><path class="c" d="M382.22,29.78H376V20h6.23Z"/><path class="c" d="M394.53,29.78h-6.22V20h6.22Z"/><path class="c" d="M406.85,29.78h-6.22V20h6.22Z"/><path class="c" d="M419.17,29.78H413V20h6.22Z"/><path class="c" d="M431.49,29.78h-6.23V20h6.23Z"/><path class="c" d="M443.8,29.78h-6.22V20h6.22Z"/><path class="c" d="M456.12,29.78H449.9V20h6.22Z"/><path class="c" d="M463.36,29.78h-6.23V20h6.23Z"/><path class="c" d="M464.37,29.78V20h6.23v9.78ZM471.49,20h6.22v9.78h-6.22Zm13.33,0v9.78H478.6V20Z"/><path class="c" d="M485.83,29.78V20h6.23v9.78ZM493,20h6.22v9.78H493Zm13.33,0v9.78h-6.22V20Z"/><path class="c" d="M518.6,29.78h-6.22V20h6.22Z"/><path class="c" d="M525.84,29.78h-6.23V20h6.23Z"/><path class="c" d="M538.15,29.78h-6.22V20h6.22Z"/><path class="c" d="M0,39.78V30H6.22v9.78ZM7.11,30h6.23v9.78H7.11Zm13.34,0v9.78H14.22V30Z"/><path class="c" d="M27.68,39.78H21.46V30h6.22Z"/><path class="c" d="M45.08,39.78H38.86V30h6.22Z"/><path class="c" d="M57.4,39.78H51.17V30H57.4Z"/><path class="c" d="M69.71,39.78H63.49V30h6.22Z"/><path class="c" d="M77,39.78H70.73V30H77Z"/><path class="c" d="M89.27,39.78H83.05V30h6.22Z"/><path class="c" d="M101.59,39.78H95.36V30h6.23Z"/><path class="c" d="M113.9,39.78h-6.22V30h6.22Z"/><path class="c" d="M126.22,39.78H120V30h6.22Z"/><path class="c" d="M138.54,39.78h-6.22V30h6.22Z"/><path class="c" d="M150.86,39.78h-6.23V30h6.23Z"/><path class="c" d="M163.17,39.78H157V30h6.22Z"/><path class="c" d="M175.49,39.78h-6.22V30h6.22Z"/><path class="c" d="M187.81,39.78h-6.23V30h6.23Z"/><path class="c" d="M195,39.78h-6.22V30H195Z"/><path class="c" d="M196.06,39.78V30h6.22v9.78ZM203.17,30h6.22v9.78h-6.22Zm13.34,0v9.78h-6.23V30Z"/><path class="c" d="M217.52,39.78V30h6.22v9.78ZM224.63,30h6.23v9.78h-6.23ZM238,30v9.78h-6.22V30Z"/><path class="c" d="M250.29,39.78h-6.23V30h6.23Z"/><path class="c" d="M257.52,39.78H251.3V30h6.22Z"/><path class="c" d="M269.84,39.78h-6.22V30h6.22Z"/><path class="c" d="M275.93,39.78V30h6.23v9.78ZM283.05,30h6.22v9.78h-6.22Zm13.33,0v9.78h-6.22V30Z"/><path class="c" d="M308.7,39.78h-6.22V30h6.22Z"/><path class="c" d="M319.87,39.78V30h6.22v9.78ZM327,30h6.23v9.78H327Zm13.34,0v9.78H334.1V30Z"/><path class="c" d="M352.64,39.78h-6.23V30h6.23Z"/><path class="c" d="M365,39.78h-6.22V30H365Z"/><path class="c" d="M372.19,39.78H366V30h6.22Z"/><path class="c" d="M384.51,39.78h-6.22V30h6.22Z"/><path class="c" d="M390.6,39.78V30h6.23v9.78ZM397.71,30h6.23v9.78h-6.23Zm13.34,0v9.78h-6.22V30Z"/><path class="c" d="M423.37,39.78h-6.23V30h6.23Z"/><path class="c" d="M435.68,39.78h-6.22V30h6.22Z"/><path class="c" d="M442.92,39.78H436.7V30h6.22Z"/><path class="c" d="M455.24,39.78H449V30h6.23Z"/><path class="c" d="M462.48,39.78h-6.23V30h6.23Z"/><path class="c" d="M474.79,39.78h-6.22V30h6.22Z"/><path class="c" d="M480.89,39.78V30h6.22v9.78ZM488,30h6.22v9.78H488Zm13.33,0v9.78h-6.22V30Z"/><path class="c" d="M508.57,39.78h-6.22V30h6.22Z"/><path class="c" d="M520.89,39.78h-6.22V30h6.22Z"/><path class="c" d="M0,49.78V40H6.22v9.78ZM7.11,40h6.23v9.78H7.11Zm13.34,0v9.78H14.22V40Z"/><path class="c" d="M32.76,49.78H26.54V40h6.22Z"/><path class="c" d="M45.08,49.78H38.86V40h6.22Z"/><path class="c" d="M52.32,49.78H46.1V40h6.22Z"/><path class="c" d="M64.64,49.78H58.41V40h6.23Z"/><path class="c" d="M70.73,49.78V40H77v9.78ZM77.84,40h6.22v9.78H77.84Zm13.34,0v9.78H85V40Z"/><path class="c" d="M103.49,49.78H97.27V40h6.22Z"/><path class="c" d="M115.81,49.78h-6.22V40h6.22Z"/><path class="c" d="M123.05,49.78h-6.22V40h6.22Z"/><path class="c" d="M135.37,49.78h-6.23V40h6.23Z"/><path class="c" d="M142.6,49.78h-6.22V40h6.22Z"/><path class="c" d="M154.92,49.78H148.7V40h6.22Z"/><path class="c" d="M161,49.78V40h6.23v9.78ZM168.13,40h6.22v9.78h-6.22Zm13.33,0v9.78h-6.22V40Z"/><path class="c" d="M188.7,49.78h-6.22V40h6.22Z"/><path class="c" d="M201,49.78h-6.23V40H201Z"/><path class="c" d="M228.57,49.78h-6.22V40h6.22Z"/><path class="c" d="M246,49.78h-6.22V40H246Z"/><path class="c" d="M258.29,49.78h-6.23V40h6.23Z"/><path class="c" d="M270.6,49.78h-6.22V40h6.22Z"/><path class="c" d="M282.92,49.78H276.7V40h6.22Z"/><path class="c" d="M295.24,49.78H289V40h6.23Z"/><path class="c" d="M307.55,49.78h-6.22V40h6.22Z"/><path class="c" d="M339,49.78V40h6.23v9.78ZM346.16,40h6.22v9.78h-6.22Zm13.33,0v9.78h-6.22V40Z"/><path class="c" d="M366.73,49.78H360.5V40h6.23Z"/><path class="c" d="M384.12,49.78H377.9V40h6.22Z"/><path class="c" d="M396.44,49.78h-6.22V40h6.22Z"/><path class="c" d="M408.76,49.78h-6.22V40h6.22Z"/><path class="c" d="M416,49.78h-6.23V40H416Z"/><path class="c" d="M428.31,49.78h-6.22V40h6.22Z"/><path class="c" d="M440.63,49.78h-6.22V40h6.22Z"/><path class="c" d="M453,49.78h-6.23V40H453Z"/><path class="c" d="M465.26,49.78H459V40h6.22Z"/><path class="c" d="M477.58,49.78h-6.22V40h6.22Z"/><path class="c" d="M489.9,49.78h-6.22V40h6.22Z"/><path class="c" d="M502.22,49.78H496V40h6.23Z"/><path class="c" d="M514.53,49.78h-6.22V40h6.22Z"/><path class="c" d="M526.85,49.78h-6.22V40h6.22Z"/><path class="c" d="M534.09,49.78h-6.22V40h6.22Z"/><path class="c" d="M0,59.78V50H6.22v9.78ZM7.11,50h6.23v9.78H7.11Zm13.34,0v9.78H14.22V50Z"/><path class="c" d="M27.68,59.78H21.46V50h6.22Z"/><path class="c" d="M45.08,59.78H38.86V50h6.22Z"/><path class="c" d="M57.4,59.78H51.17V50H57.4Z"/><path class="c" d="M69.71,59.78H63.49V50h6.22Z"/><path class="c" d="M77,59.78H70.73V50H77Z"/><path class="c" d="M89.27,59.78H83.05V50h6.22Z"/><path class="c" d="M101.59,59.78H95.36V50h6.23Z"/><path class="c" d="M113.9,59.78h-6.22V50h6.22Z"/><path class="c" d="M126.22,59.78H120V50h6.22Z"/><path class="c" d="M138.54,59.78h-6.22V50h6.22Z"/><path class="c" d="M150.86,59.78h-6.23V50h6.23Z"/><path class="c" d="M163.17,59.78H157V50h6.22Z"/><path class="c" d="M175.49,59.78h-6.22V50h6.22Z"/><path class="c" d="M187.81,59.78h-6.23V50h6.23Z"/><path class="c" d="M195,59.78h-6.22V50H195Z"/><path class="c" d="M196.06,59.78V50h6.22v9.78ZM203.17,50h6.22v9.78h-6.22Zm13.34,0v9.78h-6.23V50Z"/><path class="c" d="M217.52,59.78V50h6.22v9.78ZM224.63,50h6.23v9.78h-6.23ZM238,50v9.78h-6.22V50Z"/><path class="c" d="M250.29,59.78h-6.23V50h6.23Z"/><path class="c" d="M257.52,59.78H251.3V50h6.22Z"/><path class="c" d="M269.84,59.78h-6.22V50h6.22Z"/><path class="c" d="M275.93,59.78V50h6.23v9.78ZM283.05,50h6.22v9.78h-6.22Zm13.33,0v9.78h-6.22V50Z"/><path class="c" d="M308.7,59.78h-6.22V50h6.22Z"/><path class="c" d="M319.87,59.78V50h6.22v9.78ZM327,50h6.23v9.78H327Zm13.34,0v9.78H334.1V50Z"/><path class="c" d="M352.64,59.78h-6.23V50h6.23Z"/><path class="c" d="M365,59.78h-6.22V50H365Z"/><path class="c" d="M372.19,59.78H366V50h6.22Z"/><path class="c" d="M384.51,59.78h-6.22V50h6.22Z"/><path class="c" d="M390.6,59.78V50h6.23v9.78ZM397.71,50h6.23v9.78h-6.23Zm13.34,0v9.78h-6.22V50Z"/><path class="c" d="M423.37,59.78h-6.23V50h6.23Z"/><path class="c" d="M435.68,59.78h-6.22V50h6.22Z"/><path class="c" d="M442.92,59.78H436.7V50h6.22Z"/><path class="c" d="M455.24,59.78H449V50h6.23Z"/><path class="c" d="M462.48,59.78h-6.23V50h6.23Z"/><path class="c" d="M474.79,59.78h-6.22V50h6.22Z"/><path class="c" d="M480.89,59.78V50h6.22v9.78ZM488,50h6.22v9.78H488Zm13.33,0v9.78h-6.22V50Z"/><path class="c" d="M508.57,59.78h-6.22V50h6.22Z"/><path class="c" d="M520.89,59.78h-6.22V50h6.22Z"/><path class="c" d="M0,69.78V60H6.22v9.78ZM7.11,60h6.23v9.78H7.11Zm13.34,0v9.78H14.22V60Z"/><path class="c" d="M32.76,69.78H26.54V60h6.22Z"/><path class="c" d="M45.08,69.78H38.86V60h6.22Z"/><path class="c" d="M52.32,69.78H46.1V60h6.22Z"/><path class="c" d="M64.64,69.78H58.41V60h6.23Z"/><path class="c" d="M70.73,69.78V60H77v9.78ZM77.84,60h6.22v9.78H77.84Zm13.34,0v9.78H85V60Z"/><path class="c" d="M103.49,69.78H97.27V60h6.22Z"/><path class="c" d="M115.81,69.78h-6.22V60h6.22Z"/><path class="c" d="M123.05,69.78h-6.22V60h6.22Z"/><path class="c" d="M135.37,69.78h-6.23V60h6.23Z"/><path class="c" d="M142.6,69.78h-6.22V60h6.22Z"/><path class="c" d="M154.92,69.78H148.7V60h6.22Z"/><path class="c" d="M161,69.78V60h6.23v9.78ZM168.13,60h6.22v9.78h-6.22Zm13.33,0v9.78h-6.22V60Z"/><path class="c" d="M188.7,69.78h-6.22V60h6.22Z"/><path class="c" d="M201,69.78h-6.23V60H201Z"/><path class="c" d="M228.57,69.78h-6.22V60h6.22Z"/><path class="c" d="M246,69.78h-6.22V60H246Z"/><path class="c" d="M258.29,69.78h-6.23V60h6.23Z"/><path class="c" d="M270.6,69.78h-6.22V60h6.22Z"/><path class="c" d="M282.92,69.78H276.7V60h6.22Z"/><path class="c" d="M295.24,69.78H289V60h6.23Z"/><path class="c" d="M307.55,69.78h-6.22V60h6.22Z"/><path class="c" d="M339,69.78V60h6.23v9.78ZM346.16,60h6.22v9.78h-6.22Zm13.33,0v9.78h-6.22V60Z"/><path class="c" d="M366.73,69.78H360.5V60h6.23Z"/><path class="c" d="M384.12,69.78H377.9V60h6.22Z"/><path class="c" d="M396.44,69.78h-6.22V60h6.22Z"/><path class="c" d="M408.76,69.78h-6.22V60h6.22Z"/><path class="c" d="M416,69.78h-6.23V60H416Z"/><path class="c" d="M428.31,69.78h-6.22V60h6.22Z"/><path class="c" d="M440.63,69.78h-6.22V60h6.22Z"/><path class="c" d="M453,69.78h-6.23V60H453Z"/><path class="c" d="M465.26,69.78H459V60h6.22Z"/><path class="c" d="M477.58,69.78h-6.22V60h6.22Z"/><path class="c" d="M489.9,69.78h-6.22V60h6.22Z"/><path class="c" d="M502.22,69.78H496V60h6.23Z"/><path class="c" d="M514.53,69.78h-6.22V60h6.22Z"/><path class="c" d="M526.85,69.78h-6.22V60h6.22Z"/><path class="c" d="M534.09,69.78h-6.22V60h6.22Z"/><path class="c" d="M0,79.78V70H6.22v9.78ZM7.11,70h6.23v9.78H7.11Zm13.34,0v9.78H14.22V70Z"/><path class="c" d="M27.68,79.78H21.46V70h6.22Z"/><path class="c" d="M45.08,79.78H38.86V70h6.22Z"/><path class="c" d="M57.4,79.78H51.17V70H57.4Z"/><path class="c" d="M69.71,79.78H63.49V70h6.22Z"/><path class="c" d="M77,79.78H70.73V70H77Z"/><path class="c" d="M89.27,79.78H83.05V70h6.22Z"/><path class="c" d="M101.59,79.78H95.36V70h6.23Z"/><path class="c" d="M113.9,79.78h-6.22V70h6.22Z"/><path class="c" d="M126.22,79.78H120V70h6.22Z"/><path class="c" d="M138.54,79.78h-6.22V70h6.22Z"/><path class="c" d="M150.86,79.78h-6.23V70h6.23Z"/><path class="c" d="M163.17,79.78H157V70h6.22Z"/><path class="c" d="M175.49,79.78h-6.22V70h6.22Z"/><path class="c" d="M187.81,79.78h-6.23V70h6.23Z"/><path class="c" d="M195,79.78h-6.22V70H195Z"/><path class="c" d="M196.06,79.78V70h6.22v9.78ZM203.17,70h6.22v9.78h-6.22Zm13.34,0v9.78h-6.23V70Z"/><path class="c" d="M217.52,79.78V70h6.22v9.78ZM224.63,70h6.23v9.78h-6.23ZM238,70v9.78h-6.22V70Z"/><path class="c" d="M250.29,79.78h-6.23V70h6.23Z"/><path class="c" d="M257.52,79.78H251.3V70h6.22Z"/><path class="c" d="M269.84,79.78h-6.22V70h6.22Z"/><path class="c" d="M275.93,79.78V70h6.23v9.78ZM283.05,70h6.22v9.78h-6.22Zm13.33,0v9.78h-6.22V70Z"/><path class="c" d="M308.7,79.78h-6.22V70h6.22Z"/><path class="c" d="M319.87,79.78V70h6.22v9.78ZM327,70h6.23v9.78H327Zm13.34,0v9.78H334.1V70Z"/><path class="c" d="M352.64,79.78h-6.23V70h6.23Z"/><path class="c" d="M365,79.78h-6.22V70H365Z"/><path class="c" d="M372.19,79.78H366V70h6.22Z"/><path class="c" d="M384.51,79.78h-6.22V70h6.22Z"/><path class="c" d="M390.6,79.78V70h6.23v9.78ZM397.71,70h6.23v9.78h-6.23Zm13.34,0v9.78h-6.22V70Z"/><path class="c" d="M423.37,79.78h-6.23V70h6.23Z"/><path class="c" d="M435.68,79.78h-6.22V70h6.22Z"/><path class="c" d="M442.92,79.78H436.7V70h6.22Z"/><path class="c" d="M455.24,79.78H449V70h6.23Z"/><path class="c" d="M462.48,79.78h-6.23V70h6.23Z"/><path class="c" d="M474.79,79.78h-6.22V70h6.22Z"/><path class="c" d="M480.89,79.78V70h6.22v9.78ZM488,70h6.22v9.78H488Zm13.33,0v9.78h-6.22V70Z"/><path class="c" d="M508.57,79.78h-6.22V70h6.22Z"/><path class="c" d="M520.89,79.78h-6.22V70h6.22Z"/><path class="c" d="M0,89.78V80H6.22v9.78ZM7.11,80h6.23v9.78H7.11Zm13.34,0v9.78H14.22V80Z"/><path class="c" d="M32.76,89.78H26.54V80h6.22Z"/><path class="c" d="M45.08,89.78H38.86V80h6.22Z"/><path class="c" d="M52.32,89.78H46.1V80h6.22Z"/><path class="c" d="M64.64,89.78H58.41V80h6.23Z"/><path class="c" d="M70.73,89.78V80H77v9.78ZM77.84,80h6.22v9.78H77.84Zm13.34,0v9.78H85V80Z"/><path class="c" d="M103.49,89.78H97.27V80h6.22Z"/><path class="c" d="M115.81,89.78h-6.22V80h6.22Z"/><path class="c" d="M123.05,89.78h-6.22V80h6.22Z"/><path class="c" d="M135.37,89.78h-6.23V80h6.23Z"/><path class="c" d="M142.6,89.78h-6.22V80h6.22Z"/><path class="c" d="M154.92,89.78H148.7V80h6.22Z"/><path class="c" d="M161,89.78V80h6.23v9.78ZM168.13,80h6.22v9.78h-6.22Zm13.33,0v9.78h-6.22V80Z"/><path class="c" d="M188.7,89.78h-6.22V80h6.22Z"/><path class="c" d="M201,89.78h-6.23V80H201Z"/><path class="c" d="M228.57,89.78h-6.22V80h6.22Z"/><path class="c" d="M246,89.78h-6.22V80H246Z"/><path class="c" d="M258.29,89.78h-6.23V80h6.23Z"/><path class="c" d="M270.6,89.78h-6.22V80h6.22Z"/><path class="c" d="M282.92,89.78H276.7V80h6.22Z"/><path class="c" d="M295.24,89.78H289V80h6.23Z"/><path class="c" d="M307.55,89.78h-6.22V80h6.22Z"/><path class="c" d="M339,89.78V80h6.23v9.78ZM346.16,80h6.22v9.78h-6.22Zm13.33,0v9.78h-6.22V80Z"/><path class="c" d="M366.73,89.78H360.5V80h6.23Z"/><path class="c" d="M384.12,89.78H377.9V80h6.22Z"/><path class="c" d="M396.44,89.78h-6.22V80h6.22Z"/><path class="c" d="M408.76,89.78h-6.22V80h6.22Z"/><path class="c" d="M416,89.78h-6.23V80H416Z"/><path class="c" d="M428.31,89.78h-6.22V80h6.22Z"/><path class="c" d="M440.63,89.78h-6.22V80h6.22Z"/><path class="c" d="M453,89.78h-6.23V80H453Z"/><path class="c" d="M465.26,89.78H459V80h6.22Z"/><path class="c" d="M477.58,89.78h-6.22V80h6.22Z"/><path class="c" d="M489.9,89.78h-6.22V80h6.22Z"/><path class="c" d="M502.22,89.78H496V80h6.23Z"/><path class="c" d="M514.53,89.78h-6.22V80h6.22Z"/><path class="c" d="M526.85,89.78h-6.22V80h6.22Z"/><path class="c" d="M534.09,89.78h-6.22V80h6.22Z"/><path class="c" d="M0,99.78V90H6.22v9.78ZM7.11,90h6.23v9.78H7.11Zm13.34,0v9.78H14.22V90Z"/><path class="c" d="M27.68,99.78H21.46V90h6.22Z"/><path class="c" d="M45.08,99.78H38.86V90h6.22Z"/><path class="c" d="M57.4,99.78H51.17V90H57.4Z"/><path class="c" d="M69.71,99.78H63.49V90h6.22Z"/><path class="c" d="M77,99.78H70.73V90H77Z"/><path class="c" d="M89.27,99.78H83.05V90h6.22Z"/><path class="c" d="M101.59,99.78H95.36V90h6.23Z"/><path class="c" d="M113.9,99.78h-6.22V90h6.22Z"/><path class="c" d="M126.22,99.78H120V90h6.22Z"/><path class="c" d="M138.54,99.78h-6.22V90h6.22Z"/><path class="c" d="M150.86,99.78h-6.23V90h6.23Z"/><path class="c" d="M163.17,99.78H157V90h6.22Z"/><path class="c" d="M175.49,99.78h-6.22V90h6.22Z"/><path class="c" d="M187.81,99.78h-6.23V90h6.23Z"/><path class="c" d="M195,99.78h-6.22V90H195Z"/><path class="c" d="M196.06,99.78V90h6.22v9.78ZM203.17,90h6.22v9.78h-6.22Zm13.34,0v9.78h-6.23V90Z"/><path class="c" d="M217.52,99.78V90h6.22v9.78ZM224.63,90h6.23v9.78h-6.23ZM238,90v9.78h-6.22V90Z"/><path class="c" d="M250.29,99.78h-6.23V90h6.23Z"/><path class="c" d="M257.52,99.78H251.3V90h6.22Z"/><path class="c" d="M269.84,99.78h-6.22V90h6.22Z"/><path class="c" d="M275.93,99.78V90h6.23v9.78ZM283.05,90h6.22v9.78h-6.22Zm13.33,0v9.78h-6.22V90Z"/><path class="c" d="M308.7,99.78h-6.22V90h6.22Z"/><path class="c" d="M319.87,99.78V90h6.22v9.78ZM327,90h6.23v9.78H327Zm13.34,0v9.78H334.1V90Z"/><path class="c" d="M352.64,99.78h-6.23V90h6.23Z"/><path class="c" d="M365,99.78h-6.22V90H365Z"/><path class="c" d="M372.19,99.78H366V90h6.22Z"/><path class="c" d="M384.51,99.78h-6.22V90h6.22Z"/><path class="c" d="M390.6,99.78V90h6.23v9.78ZM397.71,90h6.23v9.78h-6.23Zm13.34,0v9.78h-6.22V90Z"/><path class="c" d="M423.37,99.78h-6.23V90h6.23Z"/><path class="c" d="M435.68,99.78h-6.22V90h6.22Z"/><path class="c" d="M442.92,99.78H436.7V90h6.22Z"/><path class="c" d="M455.24,99.78H449V90h6.23Z"/><path class="c" d="M462.48,99.78h-6.23V90h6.23Z"/><path class="c" d="M474.79,99.78h-6.22V90h6.22Z"/><path class="c" d="M480.89,99.78V90h6.22v9.78ZM488,90h6.22v9.78H488Zm13.33,0v9.78h-6.22V90Z"/><path class="c" d="M508.57,99.78h-6.22V90h6.22Z"/><path class="c" d="M520.89,99.78h-6.22V90h6.22Z"/><path class="c" d="M0,109.78V100H6.22v9.78ZM7.11,100h6.23v9.78H7.11Zm13.34,0v9.78H14.22V100Z"/><path class="c" d="M32.76,109.78H26.54V100h6.22Z"/><path class="c" d="M45.08,109.78H38.86V100h6.22Z"/><path class="c" d="M52.32,109.78H46.1V100h6.22Z"/><path class="c" d="M64.64,109.78H58.41V100h6.23Z"/><path class="c" d="M70.73,109.78V100H77v9.78ZM77.84,100h6.22v9.78H77.84Zm13.34,0v9.78H85V100Z"/><path class="c" d="M103.49,109.78H97.27V100h6.22Z"/><path class="c" d="M115.81,109.78h-6.22V100h6.22Z"/><path class="c" d="M123.05,109.78h-6.22V100h6.22Z"/><path class="c" d="M135.37,109.78h-6.23V100h6.23Z"/><path class="c" d="M142.6,109.78h-6.22V100h6.22Z"/><path class="c" d="M154.92,109.78H148.7V100h6.22Z"/><path class="c" d="M161,109.78V100h6.23v9.78Zm7.12-9.78h6.22v9.78h-6.22Zm13.33,0v9.78h-6.22V100Z"/><path class="c" d="M188.7,109.78h-6.22V100h6.22Z"/><path class="c" d="M201,109.78h-6.23V100H201Z"/><path class="c" d="M228.57,109.78h-6.22V100h6.22Z"/><path class="c" d="M246,109.78h-6.22V100H246Z"/><path class="c" d="M258.29,109.78h-6.23V100h6.23Z"/><path class="c" d="M270.6,109.78h-6.22V100h6.22Z"/><path class="c" d="M282.92,109.78H276.7V100h6.22Z"/><path class="c" d="M295.24,109.78H289V100h6.23Z"/><path class="c" d="M307.55,109.78h-6.22V100h6.22Z"/><path class="c" d="M339,109.78V100h6.23v9.78Zm7.12-9.78h6.22v9.78h-6.22Zm13.33,0v9.78h-6.22V100Z"/><path class="c" d="M366.73,109.78H360.5V100h6.23Z"/><path class="c" d="M384.12,109.78H377.9V100h6.22Z"/><path class="c" d="M396.44,109.78h-6.22V100h6.22Z"/><path class="c" d="M408.76,109.78h-6.22V100h6.22Z"/><path class="c" d="M416,109.78h-6.23V100H416Z"/><path class="c" d="M428.31,109.78h-6.22V100h6.22Z"/><path class="c" d="M440.63,109.78h-6.22V100h6.22Z"/><path class="c" d="M453,109.78h-6.23V100H453Z"/><path class="c" d="M465.26,109.78H459V100h6.22Z"/><path class="c" d="M477.58,109.78h-6.22V100h6.22Z"/><path class="c" d="M489.9,109.78h-6.22V100h6.22Z"/><path class="c" d="M502.22,109.78H496V100h6.23Z"/><path class="c" d="M514.53,109.78h-6.22V100h6.22Z"/><path class="c" d="M526.85,109.78h-6.22V100h6.22Z"/><path class="c" d="M534.09,109.78h-6.22V100h6.22Z"/><path class="c" d="M0,119.78V110H6.22v9.78ZM7.11,110h6.23v9.78H7.11Zm13.34,0v9.78H14.22V110Z"/><path class="c" d="M27.68,119.78H21.46V110h6.22Z"/><path class="c" d="M45.08,119.78H38.86V110h6.22Z"/><path class="c" d="M57.4,119.78H51.17V110H57.4Z"/><path class="c" d="M69.71,119.78H63.49V110h6.22Z"/><path class="c" d="M77,119.78H70.73V110H77Z"/><path class="c" d="M89.27,119.78H83.05V110h6.22Z"/><path class="c" d="M101.59,119.78H95.36V110h6.23Z"/><path class="c" d="M113.9,119.78h-6.22V110h6.22Z"/><path class="c" d="M126.22,119.78H120V110h6.22Z"/><path class="c" d="M138.54,119.78h-6.22V110h6.22Z"/><path class="c" d="M150.86,119.78h-6.23V110h6.23Z"/><path class="c" d="M163.17,119.78H157V110h6.22Z"/><path class="c" d="M175.49,119.78h-6.22V110h6.22Z"/><path class="c" d="M187.81,119.78h-6.23V110h6.23Z"/><path class="c" d="M195,119.78h-6.22V110H195Z"/><path class="c" d="M196.06,119.78V110h6.22v9.78Zm7.11-9.78h6.22v9.78h-6.22Zm13.34,0v9.78h-6.23V110Z"/><path class="c" d="M217.52,119.78V110h6.22v9.78Zm7.11-9.78h6.23v9.78h-6.23ZM238,110v9.78h-6.22V110Z"/><path class="c" d="M250.29,119.78h-6.23V110h6.23Z"/><path class="c" d="M257.52,119.78H251.3V110h6.22Z"/><path class="c" d="M269.84,119.78h-6.22V110h6.22Z"/><path class="c" d="M275.93,119.78V110h6.23v9.78Zm7.12-9.78h6.22v9.78h-6.22Zm13.33,0v9.78h-6.22V110Z"/><path class="c" d="M308.7,119.78h-6.22V110h6.22Z"/><path class="c" d="M319.87,119.78V110h6.22v9.78ZM327,110h6.23v9.78H327Zm13.34,0v9.78H334.1V110Z"/><path class="c" d="M352.64,119.78h-6.23V110h6.23Z"/><path class="c" d="M365,119.78h-6.22V110H365Z"/><path class="c" d="M372.19,119.78H366V110h6.22Z"/><path class="c" d="M384.51,119.78h-6.22V110h6.22Z"/><path class="c" d="M390.6,119.78V110h6.23v9.78Zm7.11-9.78h6.23v9.78h-6.23Zm13.34,0v9.78h-6.22V110Z"/><path class="c" d="M423.37,119.78h-6.23V110h6.23Z"/><path class="c" d="M435.68,119.78h-6.22V110h6.22Z"/><path class="c" d="M442.92,119.78H436.7V110h6.22Z"/><path class="c" d="M455.24,119.78H449V110h6.23Z"/><path class="c" d="M462.48,119.78h-6.23V110h6.23Z"/><path class="c" d="M474.79,119.78h-6.22V110h6.22Z"/><path class="c" d="M480.89,119.78V110h6.22v9.78ZM488,110h6.22v9.78H488Zm13.33,0v9.78h-6.22V110Z"/><path class="c" d="M508.57,119.78h-6.22V110h6.22Z"/><path class="c" d="M520.89,119.78h-6.22V110h6.22Z"/><path class="c" d="M0,129.78V120H6.22v9.78ZM7.11,120h6.23v9.78H7.11Zm13.34,0v9.78H14.22V120Z"/><path class="c" d="M32.76,129.78H26.54V120h6.22Z"/><path class="c" d="M45.08,129.78H38.86V120h6.22Z"/><path class="c" d="M52.32,129.78H46.1V120h6.22Z"/><path class="c" d="M64.64,129.78H58.41V120h6.23Z"/><path class="c" d="M70.73,129.78V120H77v9.78ZM77.84,120h6.22v9.78H77.84Zm13.34,0v9.78H85V120Z"/><path class="c" d="M103.49,129.78H97.27V120h6.22Z"/><path class="c" d="M115.81,129.78h-6.22V120h6.22Z"/><path class="c" d="M123.05,129.78h-6.22V120h6.22Z"/><path class="c" d="M135.37,129.78h-6.23V120h6.23Z"/><path class="c" d="M142.6,129.78h-6.22V120h6.22Z"/><path class="c" d="M154.92,129.78H148.7V120h6.22Z"/><path class="c" d="M161,129.78V120h6.23v9.78Zm7.12-9.78h6.22v9.78h-6.22Zm13.33,0v9.78h-6.22V120Z"/><path class="c" d="M188.7,129.78h-6.22V120h6.22Z"/><path class="c" d="M201,129.78h-6.23V120H201Z"/><path class="c" d="M228.57,129.78h-6.22V120h6.22Z"/><path class="c" d="M246,129.78h-6.22V120H246Z"/><path class="c" d="M258.29,129.78h-6.23V120h6.23Z"/><path class="c" d="M270.6,129.78h-6.22V120h6.22Z"/><path class="c" d="M282.92,129.78H276.7V120h6.22Z"/><path class="c" d="M295.24,129.78H289V120h6.23Z"/><path class="c" d="M307.55,129.78h-6.22V120h6.22Z"/><path class="c" d="M339,129.78V120h6.23v9.78Zm7.12-9.78h6.22v9.78h-6.22Zm13.33,0v9.78h-6.22V120Z"/><path class="c" d="M366.73,129.78H360.5V120h6.23Z"/><path class="c" d="M384.12,129.78H377.9V120h6.22Z"/><path class="c" d="M396.44,129.78h-6.22V120h6.22Z"/><path class="c" d="M408.76,129.78h-6.22V120h6.22Z"/><path class="c" d="M416,129.78h-6.23V120H416Z"/><path class="c" d="M428.31,129.78h-6.22V120h6.22Z"/><path class="c" d="M440.63,129.78h-6.22V120h6.22Z"/><path class="c" d="M453,129.78h-6.23V120H453Z"/><path class="c" d="M465.26,129.78H459V120h6.22Z"/><path class="c" d="M477.58,129.78h-6.22V120h6.22Z"/><path class="c" d="M489.9,129.78h-6.22V120h6.22Z"/><path class="c" d="M502.22,129.78H496V120h6.23Z"/><path class="c" d="M514.53,129.78h-6.22V120h6.22Z"/><path class="c" d="M526.85,129.78h-6.22V120h6.22Z"/><path class="c" d="M534.09,129.78h-6.22V120h6.22Z"/><path class="c" d="M0,139.78V130H6.22v9.78ZM7.11,130h6.23v9.78H7.11Zm13.34,0v9.78H14.22V130Z"/><path class="c" d="M27.68,139.78H21.46V130h6.22Z"/><path class="c" d="M45.08,139.78H38.86V130h6.22Z"/><path class="c" d="M57.4,139.78H51.17V130H57.4Z"/><path class="c" d="M69.71,139.78H63.49V130h6.22Z"/><path class="c" d="M77,139.78H70.73V130H77Z"/><path class="c" d="M89.27,139.78H83.05V130h6.22Z"/><path class="c" d="M101.59,139.78H95.36V130h6.23Z"/><path class="c" d="M113.9,139.78h-6.22V130h6.22Z"/><path class="c" d="M126.22,139.78H120V130h6.22Z"/><path class="c" d="M138.54,139.78h-6.22V130h6.22Z"/><path class="c" d="M150.86,139.78h-6.23V130h6.23Z"/><path class="c" d="M163.17,139.78H157V130h6.22Z"/><path class="c" d="M175.49,139.78h-6.22V130h6.22Z"/><path class="c" d="M187.81,139.78h-6.23V130h6.23Z"/><path class="c" d="M195,139.78h-6.22V130H195Z"/><path class="c" d="M196.06,139.78V130h6.22v9.78Zm7.11-9.78h6.22v9.78h-6.22Zm13.34,0v9.78h-6.23V130Z"/><path class="c" d="M217.52,139.78V130h6.22v9.78Zm7.11-9.78h6.23v9.78h-6.23ZM238,130v9.78h-6.22V130Z"/><path class="c" d="M250.29,139.78h-6.23V130h6.23Z"/><path class="c" d="M257.52,139.78H251.3V130h6.22Z"/><path class="c" d="M269.84,139.78h-6.22V130h6.22Z"/><path class="c" d="M275.93,139.78V130h6.23v9.78Zm7.12-9.78h6.22v9.78h-6.22Zm13.33,0v9.78h-6.22V130Z"/><path class="c" d="M308.7,139.78h-6.22V130h6.22Z"/><path class="c" d="M319.87,139.78V130h6.22v9.78ZM327,130h6.23v9.78H327Zm13.34,0v9.78H334.1V130Z"/><path class="c" d="M352.64,139.78h-6.23V130h6.23Z"/><path class="c" d="M365,139.78h-6.22V130H365Z"/><path class="c" d="M372.19,139.78H366V130h6.22Z"/><path class="c" d="M384.51,139.78h-6.22V130h6.22Z"/><path class="c" d="M390.6,139.78V130h6.23v9.78Zm7.11-9.78h6.23v9.78h-6.23Zm13.34,0v9.78h-6.22V130Z"/><path class="c" d="M423.37,139.78h-6.23V130h6.23Z"/><path class="c" d="M435.68,139.78h-6.22V130h6.22Z"/><path class="c" d="M442.92,139.78H436.7V130h6.22Z"/><path class="c" d="M455.24,139.78H449V130h6.23Z"/><path class="c" d="M462.48,139.78h-6.23V130h6.23Z"/><path class="c" d="M474.79,139.78h-6.22V130h6.22Z"/><path class="c" d="M480.89,139.78V130h6.22v9.78ZM488,130h6.22v9.78H488Zm13.33,0v9.78h-6.22V130Z"/><path class="c" d="M508.57,139.78h-6.22V130h6.22Z"/><path class="c" d="M520.89,139.78h-6.22V130h6.22Z"/><path class="c" d="M0,149.78V140H6.22v9.78ZM7.11,140h6.23v9.78H7.11Zm13.34,0v9.78H14.22V140Z"/><path class="c" d="M32.76,149.78H26.54V140h6.22Z"/><path class="c" d="M45.08,149.78H38.86V140h6.22Z"/><path class="c" d="M52.32,149.78H46.1V140h6.22Z"/><path class="c" d="M64.64,149.78H58.41V140h6.23Z"/><path class="c" d="M70.73,149.78V140H77v9.78ZM77.84,140h6.22v9.78H77.84Zm13.34,0v9.78H85V140Z"/><path class="c" d="M103.49,149.78H97.27V140h6.22Z"/><path class="c" d="M115.81,149.78h-6.22V140h6.22Z"/><path class="c" d="M123.05,149.78h-6.22V140h6.22Z"/><path class="c" d="M135.37,149.78h-6.23V140h6.23Z"/><path class="c" d="M142.6,149.78h-6.22V140h6.22Z"/><path class="c" d="M154.92,149.78H148.7V140h6.22Z"/><path class="c" d="M161,149.78V140h6.23v9.78Zm7.12-9.78h6.22v9.78h-6.22Zm13.33,0v9.78h-6.22V140Z"/><path class="c" d="M188.7,149.78h-6.22V140h6.22Z"/><path class="c" d="M201,149.78h-6.23V140H201Z"/><path class="c" d="M228.57,149.78h-6.22V140h6.22Z"/><path class="c" d="M246,149.78h-6.22V140H246Z"/><path class="c" d="M258.29,149.78h-6.23V140h6.23Z"/><path class="c" d="M270.6,149.78h-6.22V140h6.22Z"/><path class="c" d="M282.92,149.78H276.7V140h6.22Z"/><path class="c" d="M295.24,149.78H289V140h6.23Z"/><path class="c" d="M307.55,149.78h-6.22V140h6.22Z"/><path class="c" d="M339,149.78V140h6.23v9.78Zm7.12-9.78h6.22v9.78h-6.22Zm13.33,0v9.78h-6.22V140Z"/><path class="c" d="M366.73,149.78H360.5V140h6.23Z"/><path class="c" d="M384.12,149.78H377.9V140h6.22Z"/><path class="c" d="M396.44,149.78h-6.22V140h6.22Z"/><path class="c" d="M408.76,149.78h-6.22V140h6.22Z"/><path class="c" d="M416,149.78h-6.23V140H416Z"/><path class="c" d="M428.31,149.78h-6.22V140h6.22Z"/><path class="c" d="M440.63,149.78h-6.22V140h6.22Z"/><path class="c" d="M453,149.78h-6.23V140H453Z"/><path class="c" d="M465.26,149.78H459V140h6.22Z"/><path class="c" d="M477.58,149.78h-6.22V140h6.22Z"/><path class="c" d="M489.9,149.78h-6.22V140h6.22Z"/><path class="c" d="M502.22,149.78H496V140h6.23Z"/><path class="c" d="M514.53,149.78h-6.22V140h6.22Z"/><path class="c" d="M526.85,149.78h-6.22V140h6.22Z"/><path class="c" d="M534.09,149.78h-6.22V140h6.22Z"/><path class="c" d="M0,159.78V150H6.22v9.78ZM7.11,150h6.23v9.78H7.11Zm13.34,0v9.78H14.22V150Z"/><path class="c" d="M27.68,159.78H21.46V150h6.22Z"/><path class="c" d="M45.08,159.78H38.86V150h6.22Z"/><path class="c" d="M57.4,159.78H51.17V150H57.4Z"/><path class="c" d="M69.71,159.78H63.49V150h6.22Z"/><path class="c" d="M77,159.78H70.73V150H77Z"/><path class="c" d="M89.27,159.78H83.05V150h6.22Z"/><path class="c" d="M101.59,159.78H95.36V150h6.23Z"/><path class="c" d="M113.9,159.78h-6.22V150h6.22Z"/><path class="c" d="M126.22,159.78H120V150h6.22Z"/><path class="c" d="M138.54,159.78h-6.22V150h6.22Z"/><path class="c" d="M150.86,159.78h-6.23V150h6.23Z"/><path class="c" d="M163.17,159.78H157V150h6.22Z"/><path class="c" d="M175.49,159.78h-6.22V150h6.22Z"/><path class="c" d="M187.81,159.78h-6.23V150h6.23Z"/><path class="c" d="M195,159.78h-6.22V150H195Z"/><path class="c" d="M196.06,159.78V150h6.22v9.78Zm7.11-9.78h6.22v9.78h-6.22Zm13.34,0v9.78h-6.23V150Z"/><path class="c" d="M217.52,159.78V150h6.22v9.78Zm7.11-9.78h6.23v9.78h-6.23ZM238,150v9.78h-6.22V150Z"/><path class="c" d="M250.29,159.78h-6.23V150h6.23Z"/><path class="c" d="M257.52,159.78H251.3V150h6.22Z"/><path class="c" d="M269.84,159.78h-6.22V150h6.22Z"/><path class="c" d="M275.93,159.78V150h6.23v9.78Zm7.12-9.78h6.22v9.78h-6.22Zm13.33,0v9.78h-6.22V150Z"/><path class="c" d="M308.7,159.78h-6.22V150h6.22Z"/><path class="c" d="M319.87,159.78V150h6.22v9.78ZM327,150h6.23v9.78H327Zm13.34,0v9.78H334.1V150Z"/><path class="c" d="M352.64,159.78h-6.23V150h6.23Z"/><path class="c" d="M365,159.78h-6.22V150H365Z"/><path class="c" d="M372.19,159.78H366V150h6.22Z"/><path class="c" d="M384.51,159.78h-6.22V150h6.22Z"/><path class="c" d="M390.6,159.78V150h6.23v9.78Zm7.11-9.78h6.23v9.78h-6.23Zm13.34,0v9.78h-6.22V150Z"/><path class="c" d="M423.37,159.78h-6.23V150h6.23Z"/><path class="c" d="M435.68,159.78h-6.22V150h6.22Z"/><path class="c" d="M442.92,159.78H436.7V150h6.22Z"/><path class="c" d="M455.24,159.78H449V150h6.23Z"/><path class="c" d="M462.48,159.78h-6.23V150h6.23Z"/><path class="c" d="M474.79,159.78h-6.22V150h6.22Z"/><path class="c" d="M480.89,159.78V150h6.22v9.78ZM488,150h6.22v9.78H488Zm13.33,0v9.78h-6.22V150Z"/><path class="c" d="M508.57,159.78h-6.22V150h6.22Z"/><path class="c" d="M520.89,159.78h-6.22V150h6.22Z"/><path class="c" d="M0,169.78V160H6.22v9.78ZM7.11,160h6.23v9.78H7.11Zm13.34,0v9.78H14.22V160Z"/><path class="c" d="M32.76,169.78H26.54V160h6.22Z"/><path class="c" d="M45.08,169.78H38.86V160h6.22Z"/><path class="c" d="M52.32,169.78H46.1V160h6.22Z"/><path class="c" d="M64.64,169.78H58.41V160h6.23Z"/><path class="c" d="M70.73,169.78V160H77v9.78ZM77.84,160h6.22v9.78H77.84Zm13.34,0v9.78H85V160Z"/><path class="c" d="M103.49,169.78H97.27V160h6.22Z"/><path class="c" d="M115.81,169.78h-6.22V160h6.22Z"/><path class="c" d="M123.05,169.78h-6.22V160h6.22Z"/><path class="c" d="M135.37,169.78h-6.23V160h6.23Z"/><path class="c" d="M142.6,169.78h-6.22V160h6.22Z"/><path class="c" d="M154.92,169.78H148.7V160h6.22Z"/><path class="c" d="M161,169.78V160h6.23v9.78Zm7.12-9.78h6.22v9.78h-6.22Zm13.33,0v9.78h-6.22V160Z"/><path class="c" d="M188.7,169.78h-6.22V160h6.22Z"/><path class="c" d="M201,169.78h-6.23V160H201Z"/><path class="c" d="M228.57,169.78h-6.22V160h6.22Z"/><path class="c" d="M246,169.78h-6.22V160H246Z"/><path class="c" d="M258.29,169.78h-6.23V160h6.23Z"/><path class="c" d="M270.6,169.78h-6.22V160h6.22Z"/><path class="c" d="M282.92,169.78H276.7V160h6.22Z"/><path class="c" d="M295.24,169.78H289V160h6.23Z"/><path class="c" d="M307.55,169.78h-6.22V160h6.22Z"/><path class="c" d="M339,169.78V160h6.23v9.78Zm7.12-9.78h6.22v9.78h-6.22Zm13.33,0v9.78h-6.22V160Z"/><path class="c" d="M366.73,169.78H360.5V160h6.23Z"/><path class="c" d="M384.12,169.78H377.9V160h6.22Z"/><path class="c" d="M396.44,169.78h-6.22V160h6.22Z"/><path class="c" d="M408.76,169.78h-6.22V160h6.22Z"/><path class="c" d="M416,169.78h-6.23V160H416Z"/><path class="c" d="M428.31,169.78h-6.22V160h6.22Z"/><path class="c" d="M440.63,169.78h-6.22V160h6.22Z"/><path class="c" d="M453,169.78h-6.23V160H453Z"/><path class="c" d="M465.26,169.78H459V160h6.22Z"/><path class="c" d="M477.58,169.78h-6.22V160h6.22Z"/><path class="c" d="M489.9,169.78h-6.22V160h6.22Z"/><path class="c" d="M502.22,169.78H496V160h6.23Z"/><path class="c" d="M514.53,169.78h-6.22V160h6.22Z"/><path class="c" d="M526.85,169.78h-6.22V160h6.22Z"/><path class="c" d="M534.09,169.78h-6.22V160h6.22Z"/><path class="c" d="M0,179.78V170H6.22v9.78ZM7.11,170h6.23v9.78H7.11Zm13.34,0v9.78H14.22V170Z"/><path class="c" d="M27.68,179.78H21.46V170h6.22Z"/><path class="c" d="M45.08,179.78H38.86V170h6.22Z"/><path class="c" d="M57.4,179.78H51.17V170H57.4Z"/><path class="c" d="M69.71,179.78H63.49V170h6.22Z"/><path class="c" d="M77,179.78H70.73V170H77Z"/><path class="c" d="M89.27,179.78H83.05V170h6.22Z"/><path class="c" d="M101.59,179.78H95.36V170h6.23Z"/><path class="c" d="M113.9,179.78h-6.22V170h6.22Z"/><path class="c" d="M126.22,179.78H120V170h6.22Z"/><path class="c" d="M138.54,179.78h-6.22V170h6.22Z"/><path class="c" d="M150.86,179.78h-6.23V170h6.23Z"/><path class="c" d="M163.17,179.78H157V170h6.22Z"/><path class="c" d="M175.49,179.78h-6.22V170h6.22Z"/><path class="c" d="M187.81,179.78h-6.23V170h6.23Z"/><path class="c" d="M195,179.78h-6.22V170H195Z"/><path class="c" d="M196.06,179.78V170h6.22v9.78Zm7.11-9.78h6.22v9.78h-6.22Zm13.34,0v9.78h-6.23V170Z"/><path class="c" d="M217.52,179.78V170h6.22v9.78Zm7.11-9.78h6.23v9.78h-6.23ZM238,170v9.78h-6.22V170Z"/><path class="c" d="M250.29,179.78h-6.23V170h6.23Z"/><path class="c" d="M257.52,179.78H251.3V170h6.22Z"/><path class="c" d="M269.84,179.78h-6.22V170h6.22Z"/><path class="c" d="M275.93,179.78V170h6.23v9.78Zm7.12-9.78h6.22v9.78h-6.22Zm13.33,0v9.78h-6.22V170Z"/><path class="c" d="M308.7,179.78h-6.22V170h6.22Z"/><path class="c" d="M319.87,179.78V170h6.22v9.78ZM327,170h6.23v9.78H327Zm13.34,0v9.78H334.1V170Z"/><path class="c" d="M352.64,179.78h-6.23V170h6.23Z"/><path class="c" d="M365,179.78h-6.22V170H365Z"/><path class="c" d="M372.19,179.78H366V170h6.22Z"/><path class="c" d="M384.51,179.78h-6.22V170h6.22Z"/><path class="c" d="M390.6,179.78V170h6.23v9.78Zm7.11-9.78h6.23v9.78h-6.23Zm13.34,0v9.78h-6.22V170Z"/><path class="c" d="M423.37,179.78h-6.23V170h6.23Z"/><path class="c" d="M435.68,179.78h-6.22V170h6.22Z"/><path class="c" d="M442.92,179.78H436.7V170h6.22Z"/><path class="c" d="M455.24,179.78H449V170h6.23Z"/><path class="c" d="M462.48,179.78h-6.23V170h6.23Z"/><path class="c" d="M474.79,179.78h-6.22V170h6.22Z"/><path class="c" d="M480.89,179.78V170h6.22v9.78ZM488,170h6.22v9.78H488Zm13.33,0v9.78h-6.22V170Z"/><path class="c" d="M508.57,179.78h-6.22V170h6.22Z"/><path class="c" d="M520.89,179.78h-6.22V170h6.22Z"/><path class="c" d="M0,189.78V180H6.22v9.78ZM7.11,180h6.23v9.78H7.11Zm13.34,0v9.78H14.22V180Z"/><path class="c" d="M32.76,189.78H26.54V180h6.22Z"/><path class="c" d="M45.08,189.78H38.86V180h6.22Z"/><path class="c" d="M52.32,189.78H46.1V180h6.22Z"/><path class="c" d="M64.64,189.78H58.41V180h6.23Z"/><path class="c" d="M70.73,189.78V180H77v9.78ZM77.84,180h6.22v9.78H77.84Zm13.34,0v9.78H85V180Z"/><path class="c" d="M103.49,189.78H97.27V180h6.22Z"/><path class="c" d="M115.81,189.78h-6.22V180h6.22Z"/><path class="c" d="M123.05,189.78h-6.22V180h6.22Z"/><path class="c" d="M135.37,189.78h-6.23V180h6.23Z"/><path class="c" d="M142.6,189.78h-6.22V180h6.22Z"/><path class="c" d="M154.92,189.78H148.7V180h6.22Z"/><path class="c" d="M161,189.78V180h6.23v9.78Zm7.12-9.78h6.22v9.78h-6.22Zm13.33,0v9.78h-6.22V180Z"/><path class="c" d="M188.7,189.78h-6.22V180h6.22Z"/><path class="c" d="M201,189.78h-6.23V180H201Z"/><path class="c" d="M228.57,189.78h-6.22V180h6.22Z"/><path class="c" d="M246,189.78h-6.22V180H246Z"/><path class="c" d="M258.29,189.78h-6.23V180h6.23Z"/><path class="c" d="M270.6,189.78h-6.22V180h6.22Z"/><path class="c" d="M282.92,189.78H276.7V180h6.22Z"/><path class="c" d="M295.24,189.78H289V180h6.23Z"/><path class="c" d="M307.55,189.78h-6.22V180h6.22Z"/><path class="c" d="M339,189.78V180h6.23v9.78Zm7.12-9.78h6.22v9.78h-6.22Zm13.33,0v9.78h-6.22V180Z"/><path class="c" d="M366.73,189.78H360.5V180h6.23Z"/><path class="c" d="M384.12,189.78H377.9V180h6.22Z"/><path class="c" d="M396.44,189.78h-6.22V180h6.22Z"/><path class="c" d="M408.76,189.78h-6.22V180h6.22Z"/><path class="c" d="M416,189.78h-6.23V180H416Z"/><path class="c" d="M428.31,189.78h-6.22V180h6.22Z"/><path class="c" d="M440.63,189.78h-6.22V180h6.22Z"/><path class="c" d="M453,189.78h-6.23V180H453Z"/><path class="c" d="M465.26,189.78H459V180h6.22Z"/><path class="c" d="M477.58,189.78h-6.22V180h6.22Z"/><path class="c" d="M489.9,189.78h-6.22V180h6.22Z"/><path class="c" d="M502.22,189.78H496V180h6.23Z"/><path class="c" d="M514.53,189.78h-6.22V180h6.22Z"/><path class="c" d="M520.63,189.78V180h6.22v9.78Zm7.11-9.78H534v9.78h-6.22Zm13.33,0v9.78h-6.22V180Z"/><path class="c" d="M0,199.78V190H6.22v9.78ZM7.11,190h6.23v9.78H7.11Zm13.34,0v9.78H14.22V190Z"/><path class="c" d="M32.76,199.78H26.54V190h6.22Z"/><path class="c" d="M45.08,199.78H38.86V190h6.22Z"/><path class="c" d="M52.32,199.78H46.1V190h6.22Z"/><path class="c" d="M64.64,199.78H58.41V190h6.23Z"/><path class="c" d="M71.87,199.78H65.65V190h6.22Z"/><path class="c" d="M84.19,199.78H78V190h6.22Z"/><path class="c" d="M90.29,199.78V190h6.22v9.78ZM97.4,190h6.22v9.78H97.4Zm13.33,0v9.78h-6.22V190Z"/><path class="c" d="M118,199.78h-6.22V190H118Z"/><path class="c" d="M130.29,199.78h-6.23V190h6.23Z"/><path class="c" d="M157.84,199.78h-6.22V190h6.22Z"/><path class="c" d="M175.24,199.78H169V190h6.23Z"/><path class="c" d="M187.55,199.78h-6.22V190h6.22Z"/><path class="c" d="M199.87,199.78h-6.22V190h6.22Z"/><path class="c" d="M212.19,199.78H206V190h6.22Z"/><path class="c" d="M224.51,199.78h-6.23V190h6.23Z"/><path class="c" d="M236.82,199.78H230.6V190h6.22Z"/><path class="c" d="M268.31,199.78V190h6.23v9.78Zm7.11-9.78h6.23v9.78h-6.23Zm13.34,0v9.78h-6.22V190Z"/><path class="c" d="M296,199.78h-6.23V190H296Z"/><path class="c" d="M313.39,199.78h-6.22V190h6.22Z"/><path class="c" d="M325.71,199.78h-6.22V190h6.22Z"/><path class="c" d="M338,199.78H331.8V190H338Z"/><path class="c" d="M345.27,199.78H339V190h6.23Z"/><path class="c" d="M357.58,199.78h-6.22V190h6.22Z"/><path class="c" d="M369.9,199.78h-6.22V190h6.22Z"/><path class="c" d="M382.22,199.78H376V190h6.23Z"/><path class="c" d="M394.53,199.78h-6.22V190h6.22Z"/><path class="c" d="M406.85,199.78h-6.22V190h6.22Z"/><path class="c" d="M419.17,199.78H413V190h6.22Z"/><path class="c" d="M431.49,199.78h-6.23V190h6.23Z"/><path class="c" d="M443.8,199.78h-6.22V190h6.22Z"/><path class="c" d="M456.12,199.78H449.9V190h6.22Z"/><path class="c" d="M463.36,199.78h-6.23V190h6.23Z"/><path class="c" d="M464.37,199.78V190h6.23v9.78Zm7.12-9.78h6.22v9.78h-6.22Zm13.33,0v9.78H478.6V190Z"/><path class="c" d="M485.83,199.78V190h6.23v9.78ZM493,190h6.22v9.78H493Zm13.33,0v9.78h-6.22V190Z"/><path class="c" d="M518.6,199.78h-6.22V190h6.22Z"/><path class="c" d="M525.84,199.78h-6.23V190h6.23Z"/><path class="c" d="M538.15,199.78h-6.22V190h6.22Z"/><path class="c" d="M0,209.78V200H6.22v9.78ZM7.11,200h6.23v9.78H7.11Zm13.34,0v9.78H14.22V200Z"/><path class="c" d="M27.68,209.78H21.46V200h6.22Z"/><path class="c" d="M45.08,209.78H38.86V200h6.22Z"/><path class="c" d="M57.4,209.78H51.17V200H57.4Z"/><path class="c" d="M69.71,209.78H63.49V200h6.22Z"/><path class="c" d="M77,209.78H70.73V200H77Z"/><path class="c" d="M89.27,209.78H83.05V200h6.22Z"/><path class="c" d="M101.59,209.78H95.36V200h6.23Z"/><path class="c" d="M113.9,209.78h-6.22V200h6.22Z"/><path class="c" d="M126.22,209.78H120V200h6.22Z"/><path class="c" d="M138.54,209.78h-6.22V200h6.22Z"/><path class="c" d="M150.86,209.78h-6.23V200h6.23Z"/><path class="c" d="M163.17,209.78H157V200h6.22Z"/><path class="c" d="M175.49,209.78h-6.22V200h6.22Z"/><path class="c" d="M187.81,209.78h-6.23V200h6.23Z"/><path class="c" d="M195,209.78h-6.22V200H195Z"/><path class="c" d="M196.06,209.78V200h6.22v9.78Zm7.11-9.78h6.22v9.78h-6.22Zm13.34,0v9.78h-6.23V200Z"/><path class="c" d="M217.52,209.78V200h6.22v9.78Zm7.11-9.78h6.23v9.78h-6.23ZM238,200v9.78h-6.22V200Z"/><path class="c" d="M250.29,209.78h-6.23V200h6.23Z"/><path class="c" d="M257.52,209.78H251.3V200h6.22Z"/><path class="c" d="M269.84,209.78h-6.22V200h6.22Z"/><path class="c" d="M275.93,209.78V200h6.23v9.78Zm7.12-9.78h6.22v9.78h-6.22Zm13.33,0v9.78h-6.22V200Z"/><path class="c" d="M308.7,209.78h-6.22V200h6.22Z"/><path class="c" d="M319.87,209.78V200h6.22v9.78ZM327,200h6.23v9.78H327Zm13.34,0v9.78H334.1V200Z"/><path class="c" d="M352.64,209.78h-6.23V200h6.23Z"/><path class="c" d="M365,209.78h-6.22V200H365Z"/><path class="c" d="M372.19,209.78H366V200h6.22Z"/><path class="c" d="M384.51,209.78h-6.22V200h6.22Z"/><path class="c" d="M390.6,209.78V200h6.23v9.78Zm7.11-9.78h6.23v9.78h-6.23Zm13.34,0v9.78h-6.22V200Z"/><path class="c" d="M423.37,209.78h-6.23V200h6.23Z"/><path class="c" d="M435.68,209.78h-6.22V200h6.22Z"/><path class="c" d="M442.92,209.78H436.7V200h6.22Z"/><path class="c" d="M455.24,209.78H449V200h6.23Z"/><path class="c" d="M462.48,209.78h-6.23V200h6.23Z"/><path class="c" d="M474.79,209.78h-6.22V200h6.22Z"/><path class="c" d="M480.89,209.78V200h6.22v9.78ZM488,200h6.22v9.78H488Zm13.33,0v9.78h-6.22V200Z"/><path class="c" d="M508.57,209.78h-6.22V200h6.22Z"/><path class="c" d="M520.89,209.78h-6.22V200h6.22Z"/><path class="c" d="M0,219.78V210H6.22v9.78ZM7.11,210h6.23v9.78H7.11Zm13.34,0v9.78H14.22V210Z"/><path class="c" d="M32.76,219.78H26.54V210h6.22Z"/><path class="c" d="M45.08,219.78H38.86V210h6.22Z"/><path class="c" d="M52.32,219.78H46.1V210h6.22Z"/><path class="c" d="M64.64,219.78H58.41V210h6.23Z"/><path class="c" d="M70.73,219.78V210H77v9.78ZM77.84,210h6.22v9.78H77.84Zm13.34,0v9.78H85V210Z"/><path class="c" d="M103.49,219.78H97.27V210h6.22Z"/><path class="c" d="M115.81,219.78h-6.22V210h6.22Z"/><path class="c" d="M123.05,219.78h-6.22V210h6.22Z"/><path class="c" d="M135.37,219.78h-6.23V210h6.23Z"/><path class="c" d="M142.6,219.78h-6.22V210h6.22Z"/><path class="c" d="M154.92,219.78H148.7V210h6.22Z"/><path class="c" d="M161,219.78V210h6.23v9.78Zm7.12-9.78h6.22v9.78h-6.22Zm13.33,0v9.78h-6.22V210Z"/><path class="c" d="M188.7,219.78h-6.22V210h6.22Z"/><path class="c" d="M201,219.78h-6.23V210H201Z"/><path class="c" d="M228.57,219.78h-6.22V210h6.22Z"/><path class="c" d="M246,219.78h-6.22V210H246Z"/><path class="c" d="M258.29,219.78h-6.23V210h6.23Z"/><path class="c" d="M270.6,219.78h-6.22V210h6.22Z"/><path class="c" d="M282.92,219.78H276.7V210h6.22Z"/><path class="c" d="M295.24,219.78H289V210h6.23Z"/><path class="c" d="M307.55,219.78h-6.22V210h6.22Z"/><path class="c" d="M339,219.78V210h6.23v9.78Zm7.12-9.78h6.22v9.78h-6.22Zm13.33,0v9.78h-6.22V210Z"/><path class="c" d="M366.73,219.78H360.5V210h6.23Z"/><path class="c" d="M384.12,219.78H377.9V210h6.22Z"/><path class="c" d="M396.44,219.78h-6.22V210h6.22Z"/><path class="c" d="M408.76,219.78h-6.22V210h6.22Z"/><path class="c" d="M416,219.78h-6.23V210H416Z"/><path class="c" d="M428.31,219.78h-6.22V210h6.22Z"/><path class="c" d="M440.63,219.78h-6.22V210h6.22Z"/><path class="c" d="M453,219.78h-6.23V210H453Z"/><path class="c" d="M465.26,219.78H459V210h6.22Z"/><path class="c" d="M477.58,219.78h-6.22V210h6.22Z"/><path class="c" d="M489.9,219.78h-6.22V210h6.22Z"/><path class="c" d="M502.22,219.78H496V210h6.23Z"/><path class="c" d="M514.53,219.78h-6.22V210h6.22Z"/><path class="c" d="M526.85,219.78h-6.22V210h6.22Z"/><path class="c" d="M534.09,219.78h-6.22V210h6.22Z"/><path class="c" d="M0,229.78V220H6.22v9.78ZM7.11,220h6.23v9.78H7.11Zm13.34,0v9.78H14.22V220Z"/><path class="c" d="M27.68,229.78H21.46V220h6.22Z"/><path class="c" d="M45.08,229.78H38.86V220h6.22Z"/><path class="c" d="M57.4,229.78H51.17V220H57.4Z"/><path class="c" d="M69.71,229.78H63.49V220h6.22Z"/><path class="c" d="M77,229.78H70.73V220H77Z"/><path class="c" d="M89.27,229.78H83.05V220h6.22Z"/><path class="c" d="M101.59,229.78H95.36V220h6.23Z"/><path class="c" d="M113.9,229.78h-6.22V220h6.22Z"/><path class="c" d="M126.22,229.78H120V220h6.22Z"/><path class="c" d="M138.54,229.78h-6.22V220h6.22Z"/><path class="c" d="M150.86,229.78h-6.23V220h6.23Z"/><path class="c" d="M163.17,229.78H157V220h6.22Z"/><path class="c" d="M175.49,229.78h-6.22V220h6.22Z"/><path class="c" d="M187.81,229.78h-6.23V220h6.23Z"/><path class="c" d="M195,229.78h-6.22V220H195Z"/><path class="c" d="M196.06,229.78V220h6.22v9.78Zm7.11-9.78h6.22v9.78h-6.22Zm13.34,0v9.78h-6.23V220Z"/><path class="c" d="M217.52,229.78V220h6.22v9.78Zm7.11-9.78h6.23v9.78h-6.23ZM238,220v9.78h-6.22V220Z"/><path class="c" d="M250.29,229.78h-6.23V220h6.23Z"/><path class="c" d="M257.52,229.78H251.3V220h6.22Z"/><path class="c" d="M269.84,229.78h-6.22V220h6.22Z"/><path class="c" d="M275.93,229.78V220h6.23v9.78Zm7.12-9.78h6.22v9.78h-6.22Zm13.33,0v9.78h-6.22V220Z"/><path class="c" d="M308.7,229.78h-6.22V220h6.22Z"/><path class="c" d="M319.87,229.78V220h6.22v9.78ZM327,220h6.23v9.78H327Zm13.34,0v9.78H334.1V220Z"/><path class="c" d="M352.64,229.78h-6.23V220h6.23Z"/><path class="c" d="M365,229.78h-6.22V220H365Z"/><path class="c" d="M372.19,229.78H366V220h6.22Z"/><path class="c" d="M384.51,229.78h-6.22V220h6.22Z"/><path class="c" d="M390.6,229.78V220h6.23v9.78Zm7.11-9.78h6.23v9.78h-6.23Zm13.34,0v9.78h-6.22V220Z"/><path class="c" d="M423.37,229.78h-6.23V220h6.23Z"/><path class="c" d="M435.68,229.78h-6.22V220h6.22Z"/><path class="c" d="M442.92,229.78H436.7V220h6.22Z"/><path class="c" d="M455.24,229.78H449V220h6.23Z"/><path class="c" d="M462.48,229.78h-6.23V220h6.23Z"/><path class="c" d="M474.79,229.78h-6.22V220h6.22Z"/><path class="c" d="M480.89,229.78V220h6.22v9.78ZM488,220h6.22v9.78H488Zm13.33,0v9.78h-6.22V220Z"/><path class="c" d="M508.57,229.78h-6.22V220h6.22Z"/><path class="c" d="M520.89,229.78h-6.22V220h6.22Z"/><path class="c" d="M0,239.78V230H6.22v9.78ZM7.11,230h6.23v9.78H7.11Zm13.34,0v9.78H14.22V230Z"/><path class="c" d="M32.76,239.78H26.54V230h6.22Z"/><path class="c" d="M45.08,239.78H38.86V230h6.22Z"/><path class="c" d="M52.32,239.78H46.1V230h6.22Z"/><path class="c" d="M64.64,239.78H58.41V230h6.23Z"/><path class="c" d="M70.73,239.78V230H77v9.78ZM77.84,230h6.22v9.78H77.84Zm13.34,0v9.78H85V230Z"/><path class="c" d="M103.49,239.78H97.27V230h6.22Z"/><path class="c" d="M115.81,239.78h-6.22V230h6.22Z"/><path class="c" d="M123.05,239.78h-6.22V230h6.22Z"/><path class="c" d="M135.37,239.78h-6.23V230h6.23Z"/><path class="c" d="M142.6,239.78h-6.22V230h6.22Z"/><path class="c" d="M154.92,239.78H148.7V230h6.22Z"/><path class="c" d="M161,239.78V230h6.23v9.78Zm7.12-9.78h6.22v9.78h-6.22Zm13.33,0v9.78h-6.22V230Z"/><path class="c" d="M188.7,239.78h-6.22V230h6.22Z"/><path class="c" d="M201,239.78h-6.23V230H201Z"/><path class="c" d="M228.57,239.78h-6.22V230h6.22Z"/><path class="c" d="M246,239.78h-6.22V230H246Z"/><path class="c" d="M258.29,239.78h-6.23V230h6.23Z"/><path class="c" d="M270.6,239.78h-6.22V230h6.22Z"/><path class="c" d="M282.92,239.78H276.7V230h6.22Z"/><path class="c" d="M295.24,239.78H289V230h6.23Z"/><path class="c" d="M307.55,239.78h-6.22V230h6.22Z"/><path class="c" d="M339,239.78V230h6.23v9.78Zm7.12-9.78h6.22v9.78h-6.22Zm13.33,0v9.78h-6.22V230Z"/><path class="c" d="M366.73,239.78H360.5V230h6.23Z"/><path class="c" d="M384.12,239.78H377.9V230h6.22Z"/><path class="c" d="M396.44,239.78h-6.22V230h6.22Z"/><path class="c" d="M408.76,239.78h-6.22V230h6.22Z"/><path class="c" d="M416,239.78h-6.23V230H416Z"/><path class="c" d="M428.31,239.78h-6.22V230h6.22Z"/><path class="c" d="M440.63,239.78h-6.22V230h6.22Z"/><path class="c" d="M453,239.78h-6.23V230H453Z"/><path class="c" d="M465.26,239.78H459V230h6.22Z"/><path class="c" d="M477.58,239.78h-6.22V230h6.22Z"/><path class="c" d="M489.9,239.78h-6.22V230h6.22Z"/><path class="c" d="M502.22,239.78H496V230h6.23Z"/><path class="c" d="M514.53,239.78h-6.22V230h6.22Z"/><path class="c" d="M526.85,239.78h-6.22V230h6.22Z"/><path class="c" d="M534.09,239.78h-6.22V230h6.22Z"/><path class="c" d="M0,249.78V240H6.22v9.78ZM7.11,240h6.23v9.78H7.11Zm13.34,0v9.78H14.22V240Z"/><path class="c" d="M27.68,249.78H21.46V240h6.22Z"/><path class="c" d="M45.08,249.78H38.86V240h6.22Z"/><path class="c" d="M57.4,249.78H51.17V240H57.4Z"/><path class="c" d="M69.71,249.78H63.49V240h6.22Z"/><path class="c" d="M77,249.78H70.73V240H77Z"/><path class="c" d="M89.27,249.78H83.05V240h6.22Z"/><path class="c" d="M101.59,249.78H95.36V240h6.23Z"/><path class="c" d="M113.9,249.78h-6.22V240h6.22Z"/><path class="c" d="M126.22,249.78H120V240h6.22Z"/><path class="c" d="M138.54,249.78h-6.22V240h6.22Z"/><path class="c" d="M150.86,249.78h-6.23V240h6.23Z"/><path class="c" d="M163.17,249.78H157V240h6.22Z"/><path class="c" d="M175.49,249.78h-6.22V240h6.22Z"/><path class="c" d="M187.81,249.78h-6.23V240h6.23Z"/><path class="c" d="M195,249.78h-6.22V240H195Z"/><path class="c" d="M196.06,249.78V240h6.22v9.78Zm7.11-9.78h6.22v9.78h-6.22Zm13.34,0v9.78h-6.23V240Z"/><path class="c" d="M217.52,249.78V240h6.22v9.78Zm7.11-9.78h6.23v9.78h-6.23ZM238,240v9.78h-6.22V240Z"/><path class="c" d="M250.29,249.78h-6.23V240h6.23Z"/><path class="c" d="M257.52,249.78H251.3V240h6.22Z"/><path class="c" d="M269.84,249.78h-6.22V240h6.22Z"/><path class="c" d="M275.93,249.78V240h6.23v9.78Zm7.12-9.78h6.22v9.78h-6.22Zm13.33,0v9.78h-6.22V240Z"/><path class="c" d="M308.7,249.78h-6.22V240h6.22Z"/><path class="c" d="M319.87,249.78V240h6.22v9.78ZM327,240h6.23v9.78H327Zm13.34,0v9.78H334.1V240Z"/><path class="c" d="M352.64,249.78h-6.23V240h6.23Z"/><path class="c" d="M365,249.78h-6.22V240H365Z"/><path class="c" d="M372.19,249.78H366V240h6.22Z"/><path class="c" d="M384.51,249.78h-6.22V240h6.22Z"/><path class="c" d="M390.6,249.78V240h6.23v9.78Zm7.11-9.78h6.23v9.78h-6.23Zm13.34,0v9.78h-6.22V240Z"/><path class="c" d="M423.37,249.78h-6.23V240h6.23Z"/><path class="c" d="M435.68,249.78h-6.22V240h6.22Z"/><path class="c" d="M442.92,249.78H436.7V240h6.22Z"/><path class="c" d="M455.24,249.78H449V240h6.23Z"/><path class="c" d="M462.48,249.78h-6.23V240h6.23Z"/><path class="c" d="M474.79,249.78h-6.22V240h6.22Z"/><path class="c" d="M480.89,249.78V240h6.22v9.78ZM488,240h6.22v9.78H488Zm13.33,0v9.78h-6.22V240Z"/><path class="c" d="M508.57,249.78h-6.22V240h6.22Z"/><path class="c" d="M520.89,249.78h-6.22V240h6.22Z"/><path class="c" d="M0,259.78V250H6.22v9.78ZM7.11,250h6.23v9.78H7.11Zm13.34,0v9.78H14.22V250Z"/><path class="c" d="M32.76,259.78H26.54V250h6.22Z"/><path class="c" d="M45.08,259.78H38.86V250h6.22Z"/><path class="c" d="M52.32,259.78H46.1V250h6.22Z"/><path class="c" d="M64.64,259.78H58.41V250h6.23Z"/><path class="c" d="M70.73,259.78V250H77v9.78ZM77.84,250h6.22v9.78H77.84Zm13.34,0v9.78H85V250Z"/><path class="c" d="M103.49,259.78H97.27V250h6.22Z"/><path class="c" d="M115.81,259.78h-6.22V250h6.22Z"/><path class="c" d="M123.05,259.78h-6.22V250h6.22Z"/><path class="c" d="M135.37,259.78h-6.23V250h6.23Z"/><path class="c" d="M142.6,259.78h-6.22V250h6.22Z"/><path class="c" d="M154.92,259.78H148.7V250h6.22Z"/><path class="c" d="M161,259.78V250h6.23v9.78Zm7.12-9.78h6.22v9.78h-6.22Zm13.33,0v9.78h-6.22V250Z"/><path class="c" d="M188.7,259.78h-6.22V250h6.22Z"/><path class="c" d="M201,259.78h-6.23V250H201Z"/><path class="c" d="M228.57,259.78h-6.22V250h6.22Z"/><path class="c" d="M246,259.78h-6.22V250H246Z"/><path class="c" d="M258.29,259.78h-6.23V250h6.23Z"/><path class="c" d="M270.6,259.78h-6.22V250h6.22Z"/><path class="c" d="M282.92,259.78H276.7V250h6.22Z"/><path class="c" d="M295.24,259.78H289V250h6.23Z"/><path class="c" d="M307.55,259.78h-6.22V250h6.22Z"/><path class="c" d="M339,259.78V250h6.23v9.78Zm7.12-9.78h6.22v9.78h-6.22Zm13.33,0v9.78h-6.22V250Z"/><path class="c" d="M366.73,259.78H360.5V250h6.23Z"/><path class="c" d="M384.12,259.78H377.9V250h6.22Z"/><path class="c" d="M396.44,259.78h-6.22V250h6.22Z"/><path class="c" d="M408.76,259.78h-6.22V250h6.22Z"/><path class="c" d="M416,259.78h-6.23V250H416Z"/><path class="c" d="M428.31,259.78h-6.22V250h6.22Z"/><path class="c" d="M440.63,259.78h-6.22V250h6.22Z"/><path class="c" d="M453,259.78h-6.23V250H453Z"/><path class="c" d="M465.26,259.78H459V250h6.22Z"/><path class="c" d="M477.58,259.78h-6.22V250h6.22Z"/><path class="c" d="M489.9,259.78h-6.22V250h6.22Z"/><path class="c" d="M502.22,259.78H496V250h6.23Z"/><path class="c" d="M514.53,259.78h-6.22V250h6.22Z"/><path class="c" d="M526.85,259.78h-6.22V250h6.22Z"/><path class="c" d="M534.09,259.78h-6.22V250h6.22Z"/><path class="c" d="M0,269.78V260H6.22v9.78ZM7.11,260h6.23v9.78H7.11Zm13.34,0v9.78H14.22V260Z"/><path class="c" d="M27.68,269.78H21.46V260h6.22Z"/><path class="c" d="M45.08,269.78H38.86V260h6.22Z"/><path class="c" d="M57.4,269.78H51.17V260H57.4Z"/><path class="c" d="M69.71,269.78H63.49V260h6.22Z"/><path class="c" d="M77,269.78H70.73V260H77Z"/><path class="c" d="M89.27,269.78H83.05V260h6.22Z"/><path class="c" d="M101.59,269.78H95.36V260h6.23Z"/><path class="c" d="M113.9,269.78h-6.22V260h6.22Z"/><path class="c" d="M126.22,269.78H120V260h6.22Z"/><path class="c" d="M138.54,269.78h-6.22V260h6.22Z"/><path class="c" d="M150.86,269.78h-6.23V260h6.23Z"/><path class="c" d="M163.17,269.78H157V260h6.22Z"/><path class="c" d="M175.49,269.78h-6.22V260h6.22Z"/><path class="c" d="M187.81,269.78h-6.23V260h6.23Z"/><path class="c" d="M195,269.78h-6.22V260H195Z"/><path class="c" d="M196.06,269.78V260h6.22v9.78Zm7.11-9.78h6.22v9.78h-6.22Zm13.34,0v9.78h-6.23V260Z"/><path class="c" d="M217.52,269.78V260h6.22v9.78Zm7.11-9.78h6.23v9.78h-6.23ZM238,260v9.78h-6.22V260Z"/><path class="c" d="M250.29,269.78h-6.23V260h6.23Z"/><path class="c" d="M257.52,269.78H251.3V260h6.22Z"/><path class="c" d="M269.84,269.78h-6.22V260h6.22Z"/><path class="c" d="M275.93,269.78V260h6.23v9.78Zm7.12-9.78h6.22v9.78h-6.22Zm13.33,0v9.78h-6.22V260Z"/><path class="c" d="M308.7,269.78h-6.22V260h6.22Z"/><path class="c" d="M319.87,269.78V260h6.22v9.78ZM327,260h6.23v9.78H327Zm13.34,0v9.78H334.1V260Z"/><path class="c" d="M352.64,269.78h-6.23V260h6.23Z"/><path class="c" d="M365,269.78h-6.22V260H365Z"/><path class="c" d="M372.19,269.78H366V260h6.22Z"/><path class="c" d="M384.51,269.78h-6.22V260h6.22Z"/><path class="c" d="M390.6,269.78V260h6.23v9.78Zm7.11-9.78h6.23v9.78h-6.23Zm13.34,0v9.78h-6.22V260Z"/><path class="c" d="M423.37,269.78h-6.23V260h6.23Z"/><path class="c" d="M435.68,269.78h-6.22V260h6.22Z"/><path class="c" d="M442.92,269.78H436.7V260h6.22Z"/><path class="c" d="M455.24,269.78H449V260h6.23Z"/><path class="c" d="M462.48,269.78h-6.23V260h6.23Z"/><path class="c" d="M474.79,269.78h-6.22V260h6.22Z"/><path class="c" d="M480.89,269.78V260h6.22v9.78ZM488,260h6.22v9.78H488Zm13.33,0v9.78h-6.22V260Z"/><path class="c" d="M508.57,269.78h-6.22V260h6.22Z"/><path class="c" d="M520.89,269.78h-6.22V260h6.22Z"/><path class="c" d="M0,279.78V270H6.22v9.78ZM7.11,270h6.23v9.78H7.11Zm13.34,0v9.78H14.22V270Z"/><path class="c" d="M32.76,279.78H26.54V270h6.22Z"/><path class="c" d="M45.08,279.78H38.86V270h6.22Z"/><path class="c" d="M52.32,279.78H46.1V270h6.22Z"/><path class="c" d="M64.64,279.78H58.41V270h6.23Z"/><path class="c" d="M70.73,279.78V270H77v9.78ZM77.84,270h6.22v9.78H77.84Zm13.34,0v9.78H85V270Z"/><path class="c" d="M103.49,279.78H97.27V270h6.22Z"/><path class="c" d="M115.81,279.78h-6.22V270h6.22Z"/><path class="c" d="M123.05,279.78h-6.22V270h6.22Z"/><path class="c" d="M135.37,279.78h-6.23V270h6.23Z"/><path class="c" d="M142.6,279.78h-6.22V270h6.22Z"/><path class="c" d="M154.92,279.78H148.7V270h6.22Z"/><path class="c" d="M161,279.78V270h6.23v9.78Zm7.12-9.78h6.22v9.78h-6.22Zm13.33,0v9.78h-6.22V270Z"/><path class="c" d="M188.7,279.78h-6.22V270h6.22Z"/><path class="c" d="M201,279.78h-6.23V270H201Z"/><path class="c" d="M228.57,279.78h-6.22V270h6.22Z"/><path class="c" d="M246,279.78h-6.22V270H246Z"/><path class="c" d="M258.29,279.78h-6.23V270h6.23Z"/><path class="c" d="M270.6,279.78h-6.22V270h6.22Z"/><path class="c" d="M282.92,279.78H276.7V270h6.22Z"/><path class="c" d="M295.24,279.78H289V270h6.23Z"/><path class="c" d="M307.55,279.78h-6.22V270h6.22Z"/><path class="c" d="M339,279.78V270h6.23v9.78Zm7.12-9.78h6.22v9.78h-6.22Zm13.33,0v9.78h-6.22V270Z"/><path class="c" d="M366.73,279.78H360.5V270h6.23Z"/><path class="c" d="M384.12,279.78H377.9V270h6.22Z"/><path class="c" d="M396.44,279.78h-6.22V270h6.22Z"/><path class="c" d="M408.76,279.78h-6.22V270h6.22Z"/><path class="c" d="M416,279.78h-6.23V270H416Z"/><path class="c" d="M428.31,279.78h-6.22V270h6.22Z"/><path class="c" d="M440.63,279.78h-6.22V270h6.22Z"/><path class="c" d="M453,279.78h-6.23V270H453Z"/><path class="c" d="M465.26,279.78H459V270h6.22Z"/><path class="c" d="M477.58,279.78h-6.22V270h6.22Z"/><path class="c" d="M489.9,279.78h-6.22V270h6.22Z"/><path class="c" d="M502.22,279.78H496V270h6.23Z"/><path class="c" d="M514.53,279.78h-6.22V270h6.22Z"/><path class="c" d="M526.85,279.78h-6.22V270h6.22Z"/><path class="c" d="M534.09,279.78h-6.22V270h6.22Z"/><path class="c" d="M0,289.78V280H6.22v9.78ZM7.11,280h6.23v9.78H7.11Zm13.34,0v9.78H14.22V280Z"/><path class="c" d="M27.68,289.78H21.46V280h6.22Z"/><path class="c" d="M45.08,289.78H38.86V280h6.22Z"/><path class="c" d="M57.4,289.78H51.17V280H57.4Z"/><path class="c" d="M69.71,289.78H63.49V280h6.22Z"/><path class="c" d="M77,289.78H70.73V280H77Z"/><path class="c" d="M89.27,289.78H83.05V280h6.22Z"/><path class="c" d="M101.59,289.78H95.36V280h6.23Z"/><path class="c" d="M113.9,289.78h-6.22V280h6.22Z"/><path class="c" d="M126.22,289.78H120V280h6.22Z"/><path class="c" d="M138.54,289.78h-6.22V280h6.22Z"/><path class="c" d="M150.86,289.78h-6.23V280h6.23Z"/><path class="c" d="M163.17,289.78H157V280h6.22Z"/><path class="c" d="M175.49,289.78h-6.22V280h6.22Z"/><path class="c" d="M187.81,289.78h-6.23V280h6.23Z"/><path class="c" d="M195,289.78h-6.22V280H195Z"/><path class="c" d="M196.06,289.78V280h6.22v9.78Zm7.11-9.78h6.22v9.78h-6.22Zm13.34,0v9.78h-6.23V280Z"/><path class="c" d="M217.52,289.78V280h6.22v9.78Zm7.11-9.78h6.23v9.78h-6.23ZM238,280v9.78h-6.22V280Z"/><path class="c" d="M250.29,289.78h-6.23V280h6.23Z"/><path class="c" d="M257.52,289.78H251.3V280h6.22Z"/><path class="c" d="M269.84,289.78h-6.22V280h6.22Z"/><path class="c" d="M275.93,289.78V280h6.23v9.78Zm7.12-9.78h6.22v9.78h-6.22Zm13.33,0v9.78h-6.22V280Z"/><path class="c" d="M308.7,289.78h-6.22V280h6.22Z"/><path class="c" d="M319.87,289.78V280h6.22v9.78ZM327,280h6.23v9.78H327Zm13.34,0v9.78H334.1V280Z"/><path class="c" d="M352.64,289.78h-6.23V280h6.23Z"/><path class="c" d="M365,289.78h-6.22V280H365Z"/><path class="c" d="M372.19,289.78H366V280h6.22Z"/><path class="c" d="M384.51,289.78h-6.22V280h6.22Z"/><path class="c" d="M390.6,289.78V280h6.23v9.78Zm7.11-9.78h6.23v9.78h-6.23Zm13.34,0v9.78h-6.22V280Z"/><path class="c" d="M423.37,289.78h-6.23V280h6.23Z"/><path class="c" d="M435.68,289.78h-6.22V280h6.22Z"/><path class="c" d="M442.92,289.78H436.7V280h6.22Z"/><path class="c" d="M455.24,289.78H449V280h6.23Z"/><path class="c" d="M462.48,289.78h-6.23V280h6.23Z"/><path class="c" d="M474.79,289.78h-6.22V280h6.22Z"/><path class="c" d="M480.89,289.78V280h6.22v9.78ZM488,280h6.22v9.78H488Zm13.33,0v9.78h-6.22V280Z"/><path class="c" d="M508.57,289.78h-6.22V280h6.22Z"/><path class="c" d="M520.89,289.78h-6.22V280h6.22Z"/><path class="c" d="M0,299.78V290H6.22v9.78ZM7.11,290h6.23v9.78H7.11Zm13.34,0v9.78H14.22V290Z"/><path class="c" d="M32.76,299.78H26.54V290h6.22Z"/><path class="c" d="M45.08,299.78H38.86V290h6.22Z"/><path class="c" d="M52.32,299.78H46.1V290h6.22Z"/><path class="c" d="M64.64,299.78H58.41V290h6.23Z"/><path class="c" d="M70.73,299.78V290H77v9.78ZM77.84,290h6.22v9.78H77.84Zm13.34,0v9.78H85V290Z"/><path class="c" d="M103.49,299.78H97.27V290h6.22Z"/><path class="c" d="M115.81,299.78h-6.22V290h6.22Z"/><path class="c" d="M123.05,299.78h-6.22V290h6.22Z"/><path class="c" d="M135.37,299.78h-6.23V290h6.23Z"/><path class="c" d="M142.6,299.78h-6.22V290h6.22Z"/><path class="c" d="M154.92,299.78H148.7V290h6.22Z"/><path class="c" d="M161,299.78V290h6.23v9.78Zm7.12-9.78h6.22v9.78h-6.22Zm13.33,0v9.78h-6.22V290Z"/><path class="c" d="M188.7,299.78h-6.22V290h6.22Z"/><path class="c" d="M201,299.78h-6.23V290H201Z"/><path class="c" d="M228.57,299.78h-6.22V290h6.22Z"/><path class="c" d="M246,299.78h-6.22V290H246Z"/><path class="c" d="M258.29,299.78h-6.23V290h6.23Z"/><path class="c" d="M270.6,299.78h-6.22V290h6.22Z"/><path class="c" d="M282.92,299.78H276.7V290h6.22Z"/><path class="c" d="M295.24,299.78H289V290h6.23Z"/><path class="c" d="M307.55,299.78h-6.22V290h6.22Z"/><path class="c" d="M339,299.78V290h6.23v9.78Zm7.12-9.78h6.22v9.78h-6.22Zm13.33,0v9.78h-6.22V290Z"/><path class="c" d="M366.73,299.78H360.5V290h6.23Z"/><path class="c" d="M384.12,299.78H377.9V290h6.22Z"/><path class="c" d="M396.44,299.78h-6.22V290h6.22Z"/><path class="c" d="M408.76,299.78h-6.22V290h6.22Z"/><path class="c" d="M416,299.78h-6.23V290H416Z"/><path class="c" d="M428.31,299.78h-6.22V290h6.22Z"/><path class="c" d="M440.63,299.78h-6.22V290h6.22Z"/><path class="c" d="M453,299.78h-6.23V290H453Z"/><path class="c" d="M465.26,299.78H459V290h6.22Z"/><path class="c" d="M477.58,299.78h-6.22V290h6.22Z"/><path class="c" d="M489.9,299.78h-6.22V290h6.22Z"/><path class="c" d="M502.22,299.78H496V290h6.23Z"/><path class="c" d="M514.53,299.78h-6.22V290h6.22Z"/><path class="c" d="M526.85,299.78h-6.22V290h6.22Z"/><path class="c" d="M534.09,299.78h-6.22V290h6.22Z"/><path class="c" d="M0,309.78V300H6.22v9.78ZM7.11,300h6.23v9.78H7.11Zm13.34,0v9.78H14.22V300Z"/><path class="c" d="M27.68,309.78H21.46V300h6.22Z"/><path class="c" d="M45.08,309.78H38.86V300h6.22Z"/><path class="c" d="M57.4,309.78H51.17V300H57.4Z"/><path class="c" d="M69.71,309.78H63.49V300h6.22Z"/><path class="c" d="M77,309.78H70.73V300H77Z"/><path class="c" d="M89.27,309.78H83.05V300h6.22Z"/><path class="c" d="M101.59,309.78H95.36V300h6.23Z"/><path class="c" d="M113.9,309.78h-6.22V300h6.22Z"/><path class="c" d="M126.22,309.78H120V300h6.22Z"/><path class="c" d="M138.54,309.78h-6.22V300h6.22Z"/><path class="c" d="M150.86,309.78h-6.23V300h6.23Z"/><path class="c" d="M163.17,309.78H157V300h6.22Z"/><path class="c" d="M175.49,309.78h-6.22V300h6.22Z"/><path class="c" d="M187.81,309.78h-6.23V300h6.23Z"/><path class="c" d="M195,309.78h-6.22V300H195Z"/><path class="c" d="M196.06,309.78V300h6.22v9.78Zm7.11-9.78h6.22v9.78h-6.22Zm13.34,0v9.78h-6.23V300Z"/><path class="c" d="M217.52,309.78V300h6.22v9.78Zm7.11-9.78h6.23v9.78h-6.23ZM238,300v9.78h-6.22V300Z"/><path class="c" d="M250.29,309.78h-6.23V300h6.23Z"/><path class="c" d="M257.52,309.78H251.3V300h6.22Z"/><path class="c" d="M269.84,309.78h-6.22V300h6.22Z"/><path class="c" d="M275.93,309.78V300h6.23v9.78Zm7.12-9.78h6.22v9.78h-6.22Zm13.33,0v9.78h-6.22V300Z"/><path class="c" d="M308.7,309.78h-6.22V300h6.22Z"/><path class="c" d="M319.87,309.78V300h6.22v9.78ZM327,300h6.23v9.78H327Zm13.34,0v9.78H334.1V300Z"/><path class="c" d="M352.64,309.78h-6.23V300h6.23Z"/><path class="c" d="M365,309.78h-6.22V300H365Z"/><path class="c" d="M372.19,309.78H366V300h6.22Z"/><path class="c" d="M384.51,309.78h-6.22V300h6.22Z"/><path class="c" d="M390.6,309.78V300h6.23v9.78Zm7.11-9.78h6.23v9.78h-6.23Zm13.34,0v9.78h-6.22V300Z"/><path class="c" d="M423.37,309.78h-6.23V300h6.23Z"/><path class="c" d="M435.68,309.78h-6.22V300h6.22Z"/><path class="c" d="M442.92,309.78H436.7V300h6.22Z"/><path class="c" d="M455.24,309.78H449V300h6.23Z"/><path class="c" d="M462.48,309.78h-6.23V300h6.23Z"/><path class="c" d="M474.79,309.78h-6.22V300h6.22Z"/><path class="c" d="M480.89,309.78V300h6.22v9.78ZM488,300h6.22v9.78H488Zm13.33,0v9.78h-6.22V300Z"/><path class="c" d="M508.57,309.78h-6.22V300h6.22Z"/><path class="c" d="M520.89,309.78h-6.22V300h6.22Z"/><path class="c" d="M0,319.78V310H6.22v9.78ZM7.11,310h6.23v9.78H7.11Zm13.34,0v9.78H14.22V310Z"/><path class="c" d="M32.76,319.78H26.54V310h6.22Z"/><path class="c" d="M45.08,319.78H38.86V310h6.22Z"/><path class="c" d="M52.32,319.78H46.1V310h6.22Z"/><path class="c" d="M64.64,319.78H58.41V310h6.23Z"/><path class="c" d="M70.73,319.78V310H77v9.78ZM77.84,310h6.22v9.78H77.84Zm13.34,0v9.78H85V310Z"/><path class="c" d="M103.49,319.78H97.27V310h6.22Z"/><path class="c" d="M115.81,319.78h-6.22V310h6.22Z"/><path class="c" d="M123.05,319.78h-6.22V310h6.22Z"/><path class="c" d="M135.37,319.78h-6.23V310h6.23Z"/><path class="c" d="M142.6,319.78h-6.22V310h6.22Z"/><path class="c" d="M154.92,319.78H148.7V310h6.22Z"/><path class="c" d="M161,319.78V310h6.23v9.78Zm7.12-9.78h6.22v9.78h-6.22Zm13.33,0v9.78h-6.22V310Z"/><path class="c" d="M188.7,319.78h-6.22V310h6.22Z"/><path class="c" d="M201,319.78h-6.23V310H201Z"/><path class="c" d="M228.57,319.78h-6.22V310h6.22Z"/><path class="c" d="M246,319.78h-6.22V310H246Z"/><path class="c" d="M258.29,319.78h-6.23V310h6.23Z"/><path class="c" d="M270.6,319.78h-6.22V310h6.22Z"/><path class="c" d="M282.92,319.78H276.7V310h6.22Z"/><path class="c" d="M295.24,319.78H289V310h6.23Z"/><path class="c" d="M307.55,319.78h-6.22V310h6.22Z"/><path class="c" d="M339,319.78V310h6.23v9.78Zm7.12-9.78h6.22v9.78h-6.22Zm13.33,0v9.78h-6.22V310Z"/><path class="c" d="M366.73,319.78H360.5V310h6.23Z"/><path class="c" d="M384.12,319.78H377.9V310h6.22Z"/><path class="c" d="M396.44,319.78h-6.22V310h6.22Z"/><path class="c" d="M408.76,319.78h-6.22V310h6.22Z"/><path class="c" d="M416,319.78h-6.23V310H416Z"/><path class="c" d="M428.31,319.78h-6.22V310h6.22Z"/><path class="c" d="M440.63,319.78h-6.22V310h6.22Z"/><path class="c" d="M453,319.78h-6.23V310H453Z"/><path class="c" d="M465.26,319.78H459V310h6.22Z"/><path class="c" d="M477.58,319.78h-6.22V310h6.22Z"/><path class="c" d="M489.9,319.78h-6.22V310h6.22Z"/><path class="c" d="M502.22,319.78H496V310h6.23Z"/><path class="c" d="M514.53,319.78h-6.22V310h6.22Z"/><path class="c" d="M526.85,319.78h-6.22V310h6.22Z"/><path class="c" d="M534.09,319.78h-6.22V310h6.22Z"/></g></g></svg>